<?xml version="1.0" encoding="utf-8"?>
<!-- Generator: Adobe Illustrator 25.2.3, SVG Export Plug-In . SVG Version: 6.00 Build 0)  -->
<svg version="1.1" id="Layer_1" xmlns="http://www.w3.org/2000/svg" xmlns:xlink="http://www.w3.org/1999/xlink" x="0px" y="0px"
	 viewBox="0 0 420 257" style="enable-background:new 0 0 420 257;" xml:space="preserve">
<style type="text/css">
	.st0{fill-rule:evenodd;clip-rule:evenodd;fill:url(#SVGID_1_);}
	.st1{fill-rule:evenodd;clip-rule:evenodd;fill:url(#SVGID_2_);}
	.st2{fill-rule:evenodd;clip-rule:evenodd;fill:url(#SVGID_3_);}
	.st3{fill-rule:evenodd;clip-rule:evenodd;fill:#50D2E6;}
	.st4{fill-rule:evenodd;clip-rule:evenodd;fill:url(#SVGID_4_);}
	.st5{fill-rule:evenodd;clip-rule:evenodd;fill:url(#SVGID_5_);}
	.st6{fill-rule:evenodd;clip-rule:evenodd;fill:url(#SVGID_6_);}
	.st7{fill-rule:evenodd;clip-rule:evenodd;fill:url(#SVGID_7_);}
	.st8{fill:#141414;fill-opacity:0.9;filter:url(#dropShadow); }
	.st9{fill:#FFFFFF;}
	.st10{fill:#04709E;}
	.st11{fill:#00BFE7;}
	.st12{fill:url(#SVGID_8_);}
	.st13{fill:url(#SVGID_9_);}
	.st14{fill:#FFFFFF;fill-opacity:0.91;filter:url(#dropShadow);}
	.st15{fill:#141414;}
	.st16{fill:#005376;}
	.st17{fill:#71E2FA;}
	.st18{fill:#B9B9B9;}
	.st19{fill:#25A4BF;}
	.st20{fill:#FFFFFF;fill-opacity:0.85;filter:url(#dropShadow_lg);}
	.st21{fill:#949494;}
	.st22{filter:url(#dropShadow);}
</style>
<defs>
	<filter id="dropShadow" height="130%">
		<feGaussianBlur in="SourceAlpha" stdDeviation="5"/> <!-- stdDeviation is how much to blur -->
		<feOffset dx="0" dy="5" result="offsetblur"/> <!-- how much to offset -->
		<feComponentTransfer>
		<feFuncA type="linear" slope="0.25"/> <!-- slope is the opacity of the shadow -->
		</feComponentTransfer>
		<feMerge> 
			<feMergeNode/> <!-- this contains the offset blurred image -->
			<feMergeNode in="SourceGraphic"/> <!-- this contains the element that the filter is applied to -->
		</feMerge>
	</filter>
	<filter id="dropShadow_lg" height="200%">
		<feGaussianBlur in="SourceAlpha" stdDeviation="8"/> <!-- stdDeviation is how much to blur -->
		<feOffset dx="0" dy="8" result="offsetblur"/> <!-- how much to offset -->
		<feComponentTransfer>
		<feFuncA type="linear" slope="0.2"/> <!-- slope is the opacity of the shadow -->
		</feComponentTransfer>
		<feMerge> 
			<feMergeNode/> <!-- this contains the offset blurred image -->
			<feMergeNode in="SourceGraphic"/> <!-- this contains the element that the filter is applied to -->
		</feMerge>
	</filter>
</defs>
<linearGradient id="SVGID_1_" gradientUnits="userSpaceOnUse" x1="137.4821" y1="66.5679" x2="415.4931" y2="227.0779" gradientTransform="matrix(1 0 0 -1 0 258)">
	<stop  offset="0" style="stop-color:#50C8DC;stop-opacity:0"/>
	<stop  offset="0.7188" style="stop-color:#50C8DC"/>
	<stop  offset="1" style="stop-color:#50D2E6"/>
</linearGradient>
<path class="st0" d="M418,29.5c-4.2-7.3-13.5-9.8-20.8-5.6L140.5,172.1c-7.3,4.2-9.8,13.5-5.6,20.8c4.2,7.3,13.5,9.8,20.8,5.6
	L412.4,50.3C419.7,46.1,422.2,36.8,418,29.5z"/>
<linearGradient id="SVGID_2_" gradientUnits="userSpaceOnUse" x1="158.7768" y1="78.8476" x2="40.1975" y2="10.3856" gradientTransform="matrix(1 0 0 -1 0 258)">
	<stop  offset="0" style="stop-color:#50C8DC;stop-opacity:0"/>
	<stop  offset="0.7188" style="stop-color:#50C8DC"/>
	<stop  offset="1" style="stop-color:#50D2E6"/>
</linearGradient>
<path class="st1" d="M161.3,177.7c-4.2-7.3-13.5-9.8-20.8-5.6l-97.3,56.1c-7.3,4.2-9.8,13.5-5.6,20.8c4.2,7.3,13.5,9.8,20.8,5.6
	l97.3-56.1C163,194.3,165.5,185,161.3,177.7z"/>
<linearGradient id="SVGID_3_" gradientUnits="userSpaceOnUse" x1="240.2559" y1="125.9338" x2="272.2341" y2="144.3972" gradientTransform="matrix(1 0 0 -1 0 258)">
	<stop  offset="0" style="stop-color:#0074DD;stop-opacity:0"/>
	<stop  offset="1" style="stop-color:#0074DD"/>
</linearGradient>
<path class="st2" d="M264.6,100.4l-32,18.5l15.2,26.4l32-18.5L264.6,100.4z"/>
<path class="st3" d="M320.8,85.6c-4.2-7.3-13.5-9.8-20.8-5.6l-35.4,20.4c-7.3,4.2-9.8,13.5-5.6,20.8c4.2,7.3,13.5,9.8,20.8,5.6
	l35.4-20.4C322.5,102.2,325,92.8,320.8,85.6z"/>
<linearGradient id="SVGID_4_" gradientUnits="userSpaceOnUse" x1="139.0447" y1="70.2705" x2="408.4717" y2="142.4635" gradientTransform="matrix(1 0 0 -1 0 258)">
	<stop  offset="0" style="stop-color:#50C8DC;stop-opacity:0"/>
	<stop  offset="0.7188" style="stop-color:#50C8DC"/>
	<stop  offset="1" style="stop-color:#50D2E6"/>
</linearGradient>
<path class="st4" d="M413.9,114.1c-2.2-8.1-10.5-12.9-18.7-10.8l-251.1,67.3c-8.1,2.2-12.9,10.5-10.8,18.7
	c2.2,8.1,10.5,12.9,18.7,10.8l251.1-67.3C411.3,130.5,416.1,122.2,413.9,114.1z"/>
<linearGradient id="SVGID_5_" gradientUnits="userSpaceOnUse" x1="112.3268" y1="63.1218" x2="147.9908" y2="72.6778" gradientTransform="matrix(1 0 0 -1 0 258)">
	<stop  offset="0" style="stop-color:#0074DD;stop-opacity:0"/>
	<stop  offset="1" style="stop-color:#0074DD"/>
</linearGradient>
<path class="st5" d="M144.2,170.6l-35.7,9.5l7.9,29.4l35.7-9.5L144.2,170.6z"/>
<path class="st3" d="M208.4,169.1c-2.2-8.1-10.5-12.9-18.7-10.8l-45.5,12.2c-8.1,2.2-12.9,10.5-10.8,18.7
	c2.2,8.1,10.5,12.9,18.7,10.8l45.5-12.2C205.7,185.6,210.6,177.2,208.4,169.1z"/>
<linearGradient id="SVGID_6_" gradientUnits="userSpaceOnUse" x1="67.926" y1="51.7154" x2="42.753" y2="44.9703" gradientTransform="matrix(1 0 0 -1 0 258)">
	<stop  offset="0" style="stop-color:#0074DD;stop-opacity:0"/>
	<stop  offset="1" style="stop-color:#0074DD"/>
</linearGradient>
<path class="st6" d="M46.6,227.7l25.2-6.7L64,191.6l-25.2,6.7L46.6,227.7z"/>
<path class="st3" d="M57.4,209.1c-2.2-8.1-10.5-12.9-18.7-10.7l-27.5,7.4c-8.1,2.2-12.9,10.5-10.7,18.7c2.2,8.1,10.5,12.9,18.7,10.7
	l27.5-7.4C54.8,225.6,59.6,217.2,57.4,209.1z"/>
<linearGradient id="SVGID_7_" gradientUnits="userSpaceOnUse" x1="323.5092" y1="119.7033" x2="357.4807" y2="128.806" gradientTransform="matrix(1 0 0 -1 0 258)">
	<stop  offset="0" style="stop-color:#0074DD;stop-opacity:0"/>
	<stop  offset="1" style="stop-color:#0074DD"/>
</linearGradient>
<path class="st7" d="M353.7,114.5l-34,9.1l7.9,29.4l34-9.1L353.7,114.5z"/>
<path class="st3" d="M413.9,114.1c-2.2-8.1-10.5-12.9-18.7-10.8l-41.6,11.2c-8.1,2.2-12.9,10.5-10.8,18.7
	c2.2,8.1,10.5,12.9,18.7,10.8l41.6-11.2C411.3,130.5,416.1,122.2,413.9,114.1z"/>
<g>
	<g>
		<path class="st8" d="M57.4,54h129.6c4.8,0,8.7,3.9,8.7,8.7v139c0,4.8-3.9,8.7-8.7,8.7H57.4c-4.8,0-8.7-3.9-8.7-8.7v-139
			C48.7,57.9,52.6,54,57.4,54z"/>
	</g>
	<path class="st9" d="M84.5,187.8h0.8v-3.1h0l1.6,2.8h0.1l1.6-2.8h0v3.1h0.8v-4.3h-0.9l-1.5,2.6l-1.5-2.6h-0.9V187.8z M91.5,187.9
		c0.5,0,0.9-0.2,1.2-0.5l0,0.4h0.7v-2.1c0-0.8-0.4-1.3-1.3-1.3c-0.5,0-0.9,0.1-1.4,0.4v0.7h0c0.4-0.3,0.9-0.5,1.3-0.5
		c0.5,0,0.7,0.2,0.7,0.6v0.1c-1.2,0.1-1.8,0.3-2,0.5c-0.2,0.2-0.3,0.4-0.3,0.6C90.4,187.6,90.7,187.9,91.5,187.9z M91.6,187.4
		c-0.3,0-0.5-0.2-0.5-0.4c0-0.1,0-0.2,0.1-0.3c0.2-0.2,0.6-0.3,1.4-0.4v0.6C92.4,187.2,92,187.4,91.6,187.4z M94.4,187.8h0.7v-4.6
		h-0.7V187.8z M96.9,187.8H98l0.7-2.4h0.1l0.7,2.4h1.1l1-3.3h-0.8l-0.7,2.6h-0.1l-0.8-2.6h-0.9l-0.8,2.6h-0.1l-0.7-2.6h-0.8
		L96.9,187.8z M103.2,187.9c0.5,0,0.9-0.2,1.2-0.5l0,0.4h0.7v-2.1c0-0.8-0.4-1.3-1.3-1.3c-0.5,0-0.9,0.1-1.4,0.4v0.7h0
		c0.4-0.3,0.9-0.5,1.3-0.5c0.5,0,0.7,0.2,0.7,0.6v0.1c-1.2,0.1-1.8,0.3-2,0.5c-0.2,0.2-0.3,0.4-0.3,0.6
		C102,187.6,102.4,187.9,103.2,187.9z M103.3,187.4c-0.3,0-0.5-0.2-0.5-0.4c0-0.1,0-0.2,0.1-0.3c0.2-0.2,0.6-0.3,1.4-0.4v0.6
		C104.1,187.2,103.7,187.4,103.3,187.4z M106.1,187.8h0.7v-2.1c0.2-0.4,0.5-0.6,1-0.6c0.1,0,0.1,0,0.2,0v-0.7c-0.1,0-0.1,0-0.1,0
		c-0.4,0-0.7,0.2-1,0.8v-0.7h-0.7V187.8z M110.1,184.5c-1.1,0-1.7,0.8-1.7,1.8c0,0.9,0.6,1.7,1.8,1.7c0.5,0,1-0.2,1.3-0.3v-0.7h0
		c-0.4,0.2-0.8,0.4-1.2,0.4c-0.7,0-1.1-0.3-1.1-0.9h2.5c0-0.1,0-0.2,0-0.2C111.7,185.2,111.2,184.5,110.1,184.5z M110.1,185.1
		c0.6,0,0.8,0.3,0.9,0.8h-1.8C109.2,185.4,109.6,185.1,110.1,185.1z"/>
	<path class="st9" d="M144.4,188.1c1.5,0,1.8-0.8,1.8-1.3c0-0.9-0.8-1.1-1.6-1.2c-0.8-0.1-1.3-0.2-1.3-0.6c0-0.3,0.3-0.6,1-0.6
		c0.6,0,1.2,0.2,1.7,0.5h0V184c-0.5-0.3-1.1-0.4-1.6-0.4c-1.3,0-1.9,0.6-1.9,1.4c0,0.8,0.8,1,1.6,1.2c1,0.2,1.3,0.3,1.3,0.6
		c0,0.4-0.3,0.6-1,0.6c-0.6,0-1.3-0.2-1.9-0.5h0v0.8C143,187.9,143.6,188.1,144.4,188.1z M148.6,184.6c-1.1,0-1.7,0.8-1.7,1.8
		c0,0.9,0.6,1.7,1.8,1.7c0.5,0,1-0.2,1.3-0.3v-0.7h0c-0.4,0.2-0.8,0.4-1.2,0.4c-0.7,0-1.1-0.3-1.1-0.9h2.5c0-0.1,0-0.2,0-0.2
		C150.2,185.4,149.7,184.6,148.6,184.6z M148.6,185.2c0.6,0,0.8,0.3,0.9,0.8h-1.8C147.8,185.6,148.1,185.2,148.6,185.2z M151.1,188
		h0.7v-2.2c0.3-0.3,0.6-0.5,1-0.5c0.4,0,0.6,0.2,0.6,0.7v2h0.7v-2.2c0-0.8-0.5-1.2-1.1-1.2c-0.5,0-0.9,0.3-1.2,0.6v-0.5h-0.7V188z
		 M156.5,188.1c1.1,0,1.4-0.6,1.4-1c0-0.5-0.3-0.8-1.2-1c-0.7-0.2-0.9-0.2-0.9-0.5c0-0.2,0.2-0.4,0.6-0.4c0.4,0,0.9,0.2,1.3,0.4h0
		V185c-0.3-0.2-0.8-0.3-1.3-0.3c-0.9,0-1.4,0.5-1.4,1c0,0.6,0.4,0.8,1.2,1c0.8,0.2,0.9,0.3,0.9,0.5c0,0.2-0.2,0.4-0.6,0.4
		c-0.5,0-1-0.2-1.5-0.4h0v0.7C155.6,188,156.1,188.1,156.5,188.1z M159.2,184.2c0.3,0,0.5-0.2,0.5-0.4v0c0-0.2-0.2-0.4-0.5-0.4
		c-0.3,0-0.5,0.2-0.5,0.4v0C158.7,184,158.8,184.2,159.2,184.2z M158.8,188h0.7v-3.3h-0.7V188z M161,188h0.7v-2.7h0.8v-0.6h-0.8
		v-0.8L161,184v0.8h-0.6l-0.1,0.6h0.8V188z M163.6,184.2c0.3,0,0.5-0.2,0.5-0.4v0c0-0.2-0.2-0.4-0.5-0.4c-0.3,0-0.5,0.2-0.5,0.4v0
		C163.1,184,163.3,184.2,163.6,184.2z M163.2,188h0.7v-3.3h-0.7V188z M165.9,188h1.1l1.2-3.3h-0.8l-0.9,2.6h-0.1l-0.9-2.6h-0.8
		L165.9,188z M170.4,184.6c-1.1,0-1.7,0.8-1.7,1.8c0,0.9,0.6,1.7,1.8,1.7c0.5,0,1-0.2,1.3-0.3v-0.7h0c-0.4,0.2-0.8,0.4-1.2,0.4
		c-0.7,0-1.1-0.3-1.1-0.9h2.5c0-0.1,0-0.2,0-0.2C172,185.4,171.5,184.6,170.4,184.6z M170.4,185.2c0.5,0,0.8,0.3,0.9,0.8h-1.8
		C169.5,185.6,169.9,185.2,170.4,185.2z"/>
	<path class="st9" d="M124.2,116.6c0-1.1-0.5-2.4-2.7-2.8v0c1.8-0.5,2.6-1.6,2.6-2.9c0-2.1-1.9-3.4-4.7-3.4c-1.8,0-3.4,0.4-4.6,0.9
		v2.5h0c1.6-0.7,3-1.1,4.4-1.1c1.6,0,2.4,0.4,2.4,1.4c0,1-1,1.6-3.4,1.6h-1v2.2h1c2.3,0,3.4,0.4,3.4,1.5c0,1.1-1.1,1.6-2.7,1.6
		c-1,0-3-0.3-4.6-1h0v2.5c1.3,0.5,2.9,0.8,4.7,0.8C121.8,120.3,124.2,118.9,124.2,116.6z M132,120.3c3.8,0,5.9-2.9,5.9-6.4
		c0-3.6-2-6.4-5.8-6.4c-4,0-5.9,2.9-5.9,6.4C126.2,117.5,128,120.3,132,120.3z M132.1,118c-2.1,0-3.2-1.5-3.2-4.1s1.1-4.1,3.2-4.1
		c2.1,0,3.2,1.5,3.2,4.1S134.1,118,132.1,118z"/>
	<circle class="st10" cx="77.8" cy="185.6" r="3.4"/>
	<circle class="st11" cx="135.5" cy="185.6" r="3.4"/>
	
		<linearGradient id="SVGID_8_" gradientUnits="userSpaceOnUse" x1="103.8631" y1="188.1646" x2="103.8631" y2="93.1921" gradientTransform="matrix(1 0 0 -1 0 258)">
		<stop  offset="0" style="stop-color:#04709E"/>
		<stop  offset="1" style="stop-color:#04709E;stop-opacity:0.4"/>
	</linearGradient>
	<path class="st12" d="M81.5,138.4c-4.3-7.6-6.7-16.2-6.7-25.2c0-17.6,8.6-33,21.9-42.3c2.6-1.9,6.4-1.4,8.6,1.4
		c1.9,2.6,1.4,6.4-1.4,8.6c-10.2,7.1-16.6,19-16.6,32.3c0,7.1,1.9,13.5,5,19.2c6.9,12.1,19.7,20.4,34.7,20.4c3.3,0,5.9,2.6,5.9,5.9
		c0,3.3-2.6,5.9-5.9,5.9C107.2,165,90.3,154.4,81.5,138.4z"/>
	
		<linearGradient id="SVGID_9_" gradientUnits="userSpaceOnUse" x1="126.4302" y1="178.4717" x2="126.4302" y2="108.635" gradientTransform="matrix(1 0 0 -1 0 258)">
		<stop  offset="0" style="stop-color:#00BFE7;stop-opacity:0.44"/>
		<stop  offset="1" style="stop-color:#00BFE7"/>
	</linearGradient>
	<path class="st13" d="M91.5,114.2c0-11.2,5.2-21.4,13.5-27.8c2.6-2.1,6.4-1.7,8.6,1.2c2.1,2.6,1.7,6.4-1.2,8.6
		c-5.5,4.3-8.8,10.7-8.8,18.1c0,12.6,10.2,22.8,22.8,22.8s22.8-10.2,22.8-22.8c0-12.6-10.2-22.8-22.8-22.8c-3.3,0-5.9-2.6-5.9-5.9
		c0-3.3,2.6-5.9,5.9-5.9c19.2,0,34.9,15.7,34.9,34.9s-15.7,34.9-34.9,34.9S91.5,133.7,91.5,114.2z"/>
</g>

<g>
	<path class="st14" d="M169.7,17.4c0-3,2.4-5.4,5.4-5.4h120.7c3,0,5.4,2.4,5.4,5.4v135.4c0,3-2.4,5.4-5.4,5.4H175
		c-3,0-5.4-2.4-5.4-5.4V17.4z"/>
</g>
<path class="st15" d="M198.8,37.2h1.9l1.7-4.8h-1.2l-1.3,3.7h-0.2l-1.3-3.7h-1.3L198.8,37.2z M205.8,37.3c1.3,0,2.4-0.5,2.4-2v-2.9
	H207v2.9c0,0.7-0.6,0.9-1.2,0.9c-0.6,0-1.2-0.2-1.2-1v-2.8h-1.2v2.9C203.5,36.8,204.5,37.3,205.8,37.3z M209.8,37.2h3.9l0-1H211
	v-3.7h-1.2V37.2z M214.8,37.2h1.1V34h0l2.4,3.1h1.2v-4.8h-1.1v3h0l-2.3-3h-1.3V37.2z M221.3,37.2h4.2l0-1h-3.1v-0.9h2.4v-1h-2.4
	v-0.9h3l0-1h-4.1V37.2z M226.8,37.2h1.2v-1.4h0.9l1.3,1.4h1.5v0l-1.6-1.6c0.8-0.3,1.2-0.7,1.2-1.5c0-1.2-0.7-1.6-2.2-1.6h-2.3V37.2z
	 M228,34.8v-1.3h1.3c0.6,0,0.9,0.2,0.9,0.7c0,0.5-0.3,0.7-0.9,0.7H228z M232.2,37.2h1.2l0.3-1h2.3l0.3,1h1.2l-1.7-4.8h-2.1
	L232.2,37.2z M234.7,33.4h0.4l0.6,1.8h-1.7L234.7,33.4z M238.8,37.2h2.8c1.1,0,1.8-0.3,1.8-1.3c0-0.6-0.3-0.9-0.9-1.1
	c0.6-0.2,0.8-0.6,0.8-1.1c0-0.8-0.6-1.2-1.6-1.2h-2.9V37.2z M239.9,34.3v-0.9h1.6c0.4,0,0.6,0.1,0.6,0.4c0,0.3-0.2,0.5-0.7,0.5
	H239.9z M239.9,36.2v-1h1.6c0.5,0,0.7,0.2,0.7,0.5c0,0.3-0.2,0.5-0.7,0.5L239.9,36.2z M244.7,37.2h1.2v-4.8h-1.2V37.2z M247.6,37.2
	h3.9l0-1h-2.7v-3.7h-1.2V37.2z M252.6,37.2h1.2v-4.8h-1.2V37.2z M256.8,37.2h1.2v-3.7h1.8l0-1h-4.6l0,1h1.8V37.2z M261,37.2h1.2
	v-4.8H261V37.2z M263.9,37.2h4.2l0-1h-3.1v-0.9h2.4v-1h-2.4v-0.9h3l0-1h-4.1V37.2z M271.5,37.3c2,0,2.2-1,2.2-1.5
	c0-0.9-0.9-1.2-1.9-1.5c-1.1-0.2-1.3-0.3-1.3-0.6c0-0.3,0.3-0.4,0.9-0.4c0.7,0,1.4,0.2,1.9,0.6h0v-1.1c-0.5-0.2-1.2-0.4-1.9-0.4
	c-1.5,0-2.2,0.7-2.2,1.5c0,1,0.8,1.2,1.9,1.4c1.1,0.2,1.3,0.3,1.3,0.6c0,0.3-0.2,0.4-1,0.4c-0.6,0-1.5-0.2-2.2-0.6h0v1.1
	C269.9,37.1,270.7,37.3,271.5,37.3z"/>
<path class="st15" d="M209.7,65.9c1.2,0,2.1-0.4,2.6-0.8v-1.3h0c-0.7,0.5-1.5,0.9-2.6,0.9c-1.6,0-2.5-1-2.5-2.4
	c0-1.4,0.9-2.4,2.5-2.4c1.1,0,1.8,0.5,2.5,1h0v-1.3c-0.5-0.4-1.4-0.8-2.5-0.8c-2.5,0-3.8,1.7-3.8,3.6
	C206.1,64.3,207.2,65.9,209.7,65.9z M213.9,65.8h1.2v-3.3c0.3-0.6,0.8-0.9,1.5-0.9c0.1,0,0.2,0,0.3,0v-1.2c-0.1,0-0.1,0-0.2,0
	c-0.6,0-1.2,0.4-1.6,1.2v-1.1h-1.2V65.8z M218.5,59.8c0.5,0,0.8-0.3,0.8-0.7v0c0-0.4-0.3-0.7-0.8-0.7s-0.8,0.3-0.8,0.7v0
	C217.8,59.5,218.1,59.8,218.5,59.8z M217.9,65.8h1.2v-5.2h-1.2V65.8z M221.5,65.8h1.2v-4.2h1.3v-1h-1.3v-1.3l-1.2,0.1v1.2h-1l-0.2,1
	h1.2V65.8z M225.6,59.8c0.5,0,0.8-0.3,0.8-0.7v0c0-0.4-0.3-0.7-0.8-0.7s-0.8,0.3-0.8,0.7v0C224.8,59.5,225.1,59.8,225.6,59.8z
	 M225,65.8h1.2v-5.2H225V65.8z M230.5,65.9c0.7,0,1.3-0.2,1.8-0.5v-1.1h0c-0.6,0.4-1.1,0.6-1.7,0.6c-1,0-1.8-0.6-1.8-1.7
	c0-1,0.7-1.7,1.8-1.7c0.6,0,1.2,0.2,1.7,0.6h0V61c-0.5-0.3-1.1-0.5-1.8-0.5c-1.7,0-2.9,1.2-2.9,2.8
	C227.6,64.9,228.8,65.9,230.5,65.9z M235.1,65.9c0.8,0,1.4-0.3,1.9-0.8l0,0.7h1.1v-3.3c0-1.3-0.7-2-2.1-2c-0.7,0-1.5,0.2-2.2,0.6
	v1.1h0c0.6-0.5,1.4-0.7,2-0.7c0.8,0,1.1,0.4,1.1,1v0.2c-2,0.1-2.8,0.5-3.1,0.8c-0.2,0.2-0.4,0.6-0.4,1
	C233.4,65.3,234,65.9,235.1,65.9z M235.4,65c-0.5,0-0.9-0.3-0.9-0.6c0-0.2,0.1-0.3,0.2-0.4c0.3-0.3,0.9-0.5,2.2-0.6v1
	C236.6,64.7,236,65,235.4,65z M239.8,65.8h1.2v-7.3h-1.2V65.8z M245.5,65.8h1.2v-2.1h2l1.6,2.1h1.5l-1.8-2.3c1-0.3,1.5-1,1.5-2.1
	c0-1.5-0.8-2.3-2.5-2.3h-3.5V65.8z M246.8,62.6v-2.4h2.2c1,0,1.3,0.5,1.3,1.2c0,0.7-0.3,1.2-1.3,1.2H246.8z M253.7,59.8
	c0.5,0,0.8-0.3,0.8-0.7v0c0-0.4-0.3-0.7-0.8-0.7c-0.5,0-0.8,0.3-0.8,0.7v0C252.9,59.5,253.2,59.8,253.7,59.8z M253.1,65.8h1.2v-5.2
	h-1.2V65.8z M258.1,65.9c1.7,0,2.2-0.9,2.2-1.6c0-0.9-0.5-1.3-1.8-1.6c-1.2-0.3-1.4-0.4-1.4-0.7c0-0.3,0.3-0.6,0.9-0.6
	c0.6,0,1.4,0.2,2.1,0.6h0V61c-0.4-0.2-1.2-0.5-2-0.5c-1.4,0-2.1,0.7-2.1,1.6c0,0.9,0.6,1.2,1.9,1.5c1.2,0.3,1.4,0.4,1.4,0.8
	c0,0.4-0.3,0.6-1,0.6c-0.8,0-1.6-0.3-2.3-0.7h0v1.1C256.6,65.7,257.3,65.9,258.1,65.9z M261.6,65.8h1.2v-2.2h1l1.6,2.2h1.4v0l-2-2.7
	l1.9-2.4v0h-1.4l-1.5,2h-1v-4.1h-1.2V65.8z"/>
<ellipse class="st16" cx="193.8" cy="62.6" rx="7.2" ry="7.2"/>
<path class="st9" d="M194.1,66.4h1.4v-1.5h1.2l0-1.2h-1.2v-4h-2.7l-2.6,4.2v1.1h3.9V66.4z M194.1,60.9v2.8h-2.3l1.7-2.8H194.1z"/>
<path class="st15" d="M206.5,88.4h1.2v-2.9h3.9v2.9h1.2v-6.8h-1.2v2.7h-3.9v-2.7h-1.2V88.4z M215.4,82.5c0.5,0,0.8-0.3,0.8-0.7v0
	c0-0.4-0.3-0.7-0.8-0.7s-0.8,0.3-0.8,0.7v0C214.6,82.1,214.9,82.5,215.4,82.5z M214.8,88.4h1.2v-5.2h-1.2V88.4z M219.8,86.8
	c1.6,0,2.3-0.9,2.3-1.8c0-0.6-0.3-1-0.7-1.4l1.1-1.3v0h-1.3l-0.5,0.9c-0.2-0.1-0.5-0.1-0.8-0.1c-1.6,0-2.4,0.9-2.4,1.9
	c0,0.6,0.3,1.2,1.1,1.6l-0.3,1.4c-0.8,0.3-1.1,0.8-1.1,1.2c0,0.8,0.9,1.3,2.7,1.3c2,0,2.7-0.8,2.7-1.5c0-0.9-1-1.4-3.4-1.5l0.1-0.7
	C219.4,86.8,219.6,86.8,219.8,86.8z M219.8,85.9c-0.7,0-1.2-0.3-1.2-1c0-0.6,0.5-1,1.2-1c0.7,0,1.2,0.4,1.2,1
	C221,85.6,220.5,85.9,219.8,85.9z M219.9,89.6c-1,0-1.8-0.3-1.8-0.7c0-0.2,0.2-0.4,0.5-0.6c1.9,0.1,2.9,0.3,2.9,0.8
	C221.5,89.4,220.9,89.6,219.9,89.6z M223.6,88.4h1.2v-3.5c0.4-0.4,0.9-0.8,1.5-0.8c0.6,0,1,0.3,1,1.1v3.2h1.2V85
	c0-1.3-0.7-1.9-1.8-1.9c-0.9,0-1.4,0.4-2,1v-3h-1.2V88.4z M233,88.4h1.2v-2.1h2l1.6,2.1h1.5l-1.8-2.3c1-0.3,1.5-1,1.5-2.1
	c0-1.5-0.8-2.3-2.5-2.3H233V88.4z M234.2,85.2v-2.4h2.3c1,0,1.3,0.5,1.3,1.2c0,0.7-0.3,1.2-1.3,1.2H234.2z M241.2,82.5
	c0.5,0,0.8-0.3,0.8-0.7v0c0-0.4-0.3-0.7-0.8-0.7c-0.5,0-0.8,0.3-0.8,0.7v0C240.4,82.1,240.7,82.5,241.2,82.5z M240.6,88.4h1.2v-5.2
	h-1.2V88.4z M245.6,88.6c1.7,0,2.2-0.9,2.2-1.6c0-0.9-0.5-1.3-1.8-1.6c-1.2-0.3-1.4-0.4-1.4-0.7c0-0.3,0.3-0.6,0.9-0.6
	c0.6,0,1.4,0.2,2.1,0.6h0v-1.1c-0.4-0.2-1.2-0.5-2-0.5c-1.4,0-2.1,0.7-2.1,1.6c0,0.9,0.6,1.2,1.9,1.5c1.2,0.3,1.4,0.4,1.4,0.8
	c0,0.4-0.3,0.6-1,0.6c-0.8,0-1.6-0.3-2.3-0.7h0V88C244,88.4,244.8,88.6,245.6,88.6z M249.1,88.4h1.2v-2.2h1l1.6,2.2h1.4v0l-2-2.7
	l1.9-2.4v0h-1.4l-1.5,2h-1v-4.1h-1.2V88.4z"/>
<ellipse class="st10" cx="193.8" cy="85.3" rx="7.2" ry="7.2"/>
<path class="st9" d="M193.8,82.1c-1.6,0-2.9,1-2.9,2.5c0,1.4,1.1,2.1,2.5,2.1c0.7,0,1.4-0.2,2-0.6c-0.1,1.3-1,1.8-2,1.8
	c-0.7,0-1.2-0.2-2-0.5h0v1.3c0.7,0.3,1.5,0.5,2.1,0.5c1.8,0,3.4-1.2,3.4-3.7C196.8,83.2,195.6,82.1,193.8,82.1z M192.4,84.5
	c0-0.8,0.7-1.2,1.4-1.2c0.8,0,1.6,0.4,1.7,1.7c-0.6,0.4-1.1,0.5-1.6,0.5C193.1,85.5,192.4,85.4,192.4,84.5z"/>
<path class="st15" d="M206.5,111.1h1.2v-4.8h0.1l2.5,4.4h0.1l2.5-4.4h0.1v4.8h1.2v-6.8h-1.5l-2.3,4.2l-2.4-4.2h-1.5V111.1z
	 M218.5,105.8c-1.7,0-2.7,1.2-2.7,2.8c0,1.5,1,2.6,2.9,2.6c0.9,0,1.6-0.3,2-0.5v-1.1h0c-0.6,0.4-1.2,0.6-2,0.6
	c-1.1,0-1.7-0.5-1.8-1.4h4c0-0.1,0-0.3,0-0.4C221,107,220.2,105.8,218.5,105.8z M218.5,106.8c0.9,0,1.3,0.5,1.4,1.3H217
	C217.1,107.2,217.7,106.8,218.5,106.8z M227.4,103.8h-1.2v2.3c-0.4-0.2-0.8-0.4-1.4-0.4c-1.6,0-2.8,1.2-2.8,2.8
	c0,1.7,1.1,2.6,2.4,2.6c0.8,0,1.4-0.4,1.8-0.8l0,0.7h1.1V103.8z M224.9,106.8c0.5,0,0.9,0.2,1.3,0.5v2.4c-0.3,0.3-0.9,0.6-1.4,0.6
	c-0.9,0-1.6-0.6-1.6-1.7C223.2,107.5,223.9,106.8,224.9,106.8z M229.7,105.1c0.5,0,0.8-0.3,0.8-0.7v0c0-0.4-0.3-0.7-0.8-0.7
	c-0.5,0-0.8,0.3-0.8,0.7v0C228.9,104.8,229.2,105.1,229.7,105.1z M229.1,111.1h1.2v-5.2h-1.2V111.1z M236.8,105.9h-1.2v3.5
	c-0.4,0.4-0.9,0.8-1.5,0.8c-0.6,0-1-0.3-1-1.1v-3.2h-1.2v3.4c0,1.3,0.7,1.9,1.8,1.9c0.9,0,1.4-0.4,2-1v0.8h1.2V105.9z M238.5,111.1
	h1.2v-3.5c0.4-0.4,0.9-0.8,1.5-0.8c0.5,0,1,0.3,1,1.1v3.2h1.2v-3.4c0,0,0-0.1,0-0.1c0.4-0.4,0.9-0.8,1.5-0.8c0.5,0,1,0.3,1,1.1v3.2
	h1.2v-3.4c0-1.3-0.7-1.9-1.7-1.9c-0.8,0-1.4,0.4-2,1.1c-0.2-0.8-0.9-1.1-1.6-1.1c-0.8,0-1.4,0.5-1.9,1.1v-0.9h-1.2V111.1z
	 M251.4,111.1h1.2V109h2l1.6,2.1h1.5l-1.8-2.3c1-0.3,1.5-1,1.5-2.1c0-1.5-0.8-2.3-2.5-2.3h-3.5V111.1z M252.6,107.9v-2.4h2.2
	c1,0,1.3,0.5,1.3,1.2c0,0.7-0.3,1.2-1.3,1.2H252.6z M259.6,105.1c0.5,0,0.8-0.3,0.8-0.7v0c0-0.4-0.3-0.7-0.8-0.7
	c-0.5,0-0.8,0.3-0.8,0.7v0C258.8,104.8,259.1,105.1,259.6,105.1z M259,111.1h1.2v-5.2H259V111.1z M264,111.3c1.7,0,2.2-0.9,2.2-1.6
	c0-0.9-0.5-1.3-1.8-1.6c-1.2-0.3-1.4-0.4-1.4-0.7c0-0.3,0.3-0.6,0.9-0.6c0.6,0,1.4,0.2,2.1,0.6h0v-1.1c-0.4-0.2-1.2-0.5-2-0.5
	c-1.4,0-2.1,0.7-2.1,1.6c0,0.9,0.6,1.2,1.9,1.5c1.2,0.3,1.4,0.4,1.4,0.8c0,0.4-0.3,0.6-1,0.6c-0.8,0-1.6-0.3-2.3-0.7h0v1.1
	C262.4,111.1,263.2,111.3,264,111.3z M267.5,111.1h1.2v-2.2h1l1.6,2.2h1.4v0l-2-2.7l1.9-2.4v0h-1.4l-1.5,2h-1v-4.1h-1.2V111.1z"/>
<ellipse class="st11" cx="193.8" cy="107.9" rx="7.2" ry="7.2"/>
<path class="st15" d="M192.4,112.2h1.4c0.5-2.3,1.6-3.4,3-4.8v-2h-5.7v2.4h1.4v-1.1h2.9v0.3C194.1,108.4,193,109.5,192.4,112.2z"/>
<path class="st15" d="M206.5,133.8h5.2l0-1.1h-4V127h-1.2V133.8z M215.4,133.9c1.8,0,2.8-1.2,2.8-2.7s-1.1-2.7-2.8-2.7
	s-2.8,1.2-2.8,2.7S213.7,133.9,215.4,133.9z M215.4,132.9c-1,0-1.6-0.7-1.6-1.7c0-1,0.6-1.7,1.6-1.7c1,0,1.6,0.7,1.6,1.7
	C217.1,132.2,216.4,132.9,215.4,132.9z M220.7,133.8h1.7l1.1-3.7h0.2l1.1,3.7h1.7l1.6-5.2h-1.2l-1.1,4.1h-0.2l-1.2-4h-1.4l-1.2,4
	h-0.2l-1.1-4.1h-1.2L220.7,133.8z M232,133.8h1.2v-2.1h2l1.6,2.1h1.5l-1.8-2.3c1-0.3,1.5-1,1.5-2.1c0-1.5-0.8-2.3-2.5-2.3H232V133.8
	z M233.2,130.6v-2.4h2.2c1,0,1.3,0.5,1.3,1.2c0,0.7-0.3,1.2-1.3,1.2H233.2z M240.2,127.8c0.5,0,0.8-0.3,0.8-0.7v0
	c0-0.4-0.3-0.7-0.8-0.7c-0.5,0-0.8,0.3-0.8,0.7v0C239.4,127.5,239.7,127.8,240.2,127.8z M239.6,133.8h1.2v-5.2h-1.2V133.8z
	 M244.6,133.9c1.7,0,2.2-0.9,2.2-1.6c0-0.9-0.5-1.3-1.8-1.6c-1.2-0.3-1.4-0.4-1.4-0.7c0-0.3,0.3-0.6,0.9-0.6c0.6,0,1.4,0.2,2.1,0.6
	h0V129c-0.4-0.2-1.2-0.5-2-0.5c-1.4,0-2.1,0.7-2.1,1.6c0,0.9,0.6,1.2,1.9,1.5c1.2,0.3,1.4,0.4,1.4,0.8c0,0.4-0.3,0.6-1,0.6
	c-0.8,0-1.6-0.3-2.3-0.7h0v1.1C243,133.7,243.8,133.9,244.6,133.9z M248.1,133.8h1.2v-2.2h1l1.6,2.2h1.4v0l-2-2.7l1.9-2.4v0h-1.4
	l-1.5,2h-1v-4.1h-1.2V133.8z"/>
<ellipse class="st17" cx="193.8" cy="130.6" rx="7.2" ry="7.2"/>
<path class="st15" d="M196.7,133c0-0.6-0.3-1.3-1.5-1.6v0c1-0.3,1.4-0.9,1.4-1.6c0-1.2-1.1-1.9-2.6-1.9c-1,0-1.9,0.2-2.6,0.5v1.4h0
	c0.9-0.4,1.7-0.6,2.4-0.6c0.9,0,1.3,0.2,1.3,0.8c0,0.5-0.6,0.9-1.9,0.9h-0.6v1.2h0.6c1.3,0,1.9,0.2,1.9,0.8c0,0.6-0.6,0.9-1.5,0.9
	c-0.6,0-1.6-0.2-2.5-0.6h0v1.4c0.7,0.3,1.6,0.5,2.6,0.5C195.4,135.1,196.7,134.3,196.7,133z"/>
<g class="st22">
	<path class="st18" d="M355.2,97.3l-0.3-0.2l-30-17.3v-35l30.3-17.5l0.3,0.2l30,17.3v35L355.2,97.3z M326.1,79.2L355.2,96l29.1-16.8
		V45.5l-29.1-16.8l-29.1,16.8V79.2z"/>
	<path class="st19" d="M328.6,47.2v30.3l26.2,15.2l26.3-15.2V47.2L354.9,32L328.6,47.2z"/>
	<path class="st11" d="M354.9,32v60.7l26.3-15.2V47.2L354.9,32z"/>
	<path class="st9" d="M356.1,47c3.4,0.2,6.5,1.6,9,3.7l2.5-2.4c0.5-0.5,1.2-0.5,1.8,0c0.5,0.5,0.5,1.2,0,1.8l-2.5,2.4
		c2.1,2.5,3.4,5.5,3.7,9h3.4c0.7,0,1.2,0.5,1.2,1.2s-0.5,1.2-1.2,1.2h-3.4c-0.2,3.4-1.6,6.5-3.7,9l2.4,2.3c0.5,0.5,0.5,1.2,0,1.8
		c-0.5,0.5-1.2,0.5-1.8,0l-2.4-2.5c-2.5,2.1-5.5,3.4-9,3.7v3.4c0,0.7-0.5,1.2-1.2,1.2s-1.2-0.5-1.2-1.2v-3.4c-3.4-0.2-6.5-1.6-9-3.7
		l-2.4,2.4c-0.5,0.5-1.2,0.5-1.8,0c-0.5-0.5-0.5-1.2,0-1.8l2.4-2.4c-2.1-2.5-3.4-5.5-3.7-9h-3.4c-0.7,0-1.2-0.5-1.2-1.2
		s0.5-1.2,1.2-1.2h3.4c0.2-3.4,1.6-6.5,3.7-9l-2.4-2.5c-0.5-0.5-0.5-1.2,0-1.8c0.5-0.5,1.2-0.5,1.8,0l2.4,2.5c2.5-2.1,5.5-3.4,9-3.7
		v-3.4c0-0.7,0.5-1.2,1.2-1.2s1.2,0.5,1.2,1.2L356.1,47z M356.1,58.4c0.3,0.1,0.6,0.2,0.9,0.4l6.4-6.4c-2-1.7-4.5-2.7-7.2-3
		L356.1,58.4L356.1,58.4z M358.7,60.5c0.2,0.3,0.3,0.6,0.4,0.9h9c-0.2-2.7-1.3-5.2-3-7.2L358.7,60.5z M359.1,63.8
		c-0.1,0.3-0.2,0.6-0.4,0.9l6.4,6.4c1.7-2,2.7-4.5,3-7.2L359.1,63.8L359.1,63.8z M357,66.4c-0.3,0.2-0.6,0.3-0.9,0.3v9
		c2.7-0.2,5.2-1.3,7.2-3L357,66.4z M353.7,66.8c-0.3-0.1-0.6-0.2-0.9-0.3l-6.3,6.3c2,1.7,4.5,2.7,7.2,3V66.8z M351,64.7
		c-0.2-0.3-0.3-0.6-0.4-0.9h-9c0.2,2.7,1.3,5.3,3,7.2L351,64.7z M350.7,61.3c0.1-0.3,0.2-0.6,0.4-0.9l-6.3-6.3c-1.7,2-2.7,4.5-3,7.2
		H350.7z M352.8,58.7c0.3-0.2,0.6-0.3,0.9-0.4v-9c-2.7,0.2-5.2,1.3-7.2,3L352.8,58.7z M356.3,61.2c-0.4-0.4-0.8-0.6-1.4-0.6
		c-0.5,0-1,0.2-1.4,0.6c-0.4,0.3-0.6,0.8-0.6,1.4c0,0.5,0.2,1,0.6,1.4c0.4,0.4,0.8,0.6,1.4,0.6c0.5,0,1.1-0.2,1.4-0.6
		c0.3-0.3,0.6-0.8,0.6-1.4C356.9,62,356.6,61.6,356.3,61.2z"/>
</g>
<g>
	<path class="st20" d="M220.9,143.5h144.6c3.2,0,5.7,2.6,5.7,5.7V186c0,3.2-2.6,5.7-5.7,5.7H220.9c-3.2,0-5.7-2.6-5.7-5.7v-36.8
		C215.1,146,217.7,143.5,220.9,143.5z"/>
</g>
<path class="st9" d="M229.8,167.6h109.6c3.3,0,6,2.7,6,6v0c0,3.3-2.7,6-6,6H229.8c-3.3,0-6-2.7-6-6v0
	C223.7,170.3,226.4,167.6,229.8,167.6z"/>
<path class="st11" d="M229.8,167.2h38.5c3.5,0,6.3,2.8,6.3,6.3l0,0c0,3.5-2.8,6.3-6.3,6.3h-38.5c-3.5,0-6.3-2.8-6.3-6.3l0,0
	C223.5,170,226.3,167.2,229.8,167.2z"/>
<path class="st15" d="M223.8,158.8h0.8v-1h0.7l0.9,1h1.1v0l-1.1-1.1c0.6-0.2,0.9-0.5,0.9-1.1c0-0.9-0.5-1.2-1.6-1.2h-1.7V158.8z
	 M224.7,157.1v-1h0.9c0.4,0,0.6,0.1,0.6,0.5c0,0.3-0.2,0.5-0.6,0.5H224.7z M228.1,158.8h0.8v-3.4h-0.8V158.8z M231.6,158.9
	c1.4,0,1.6-0.7,1.6-1.1c0-0.7-0.6-0.9-1.3-1c-0.8-0.2-0.9-0.2-0.9-0.4c0-0.2,0.2-0.3,0.7-0.3c0.5,0,1,0.2,1.4,0.4h0v-0.8
	c-0.4-0.2-0.9-0.3-1.3-0.3c-1.1,0-1.6,0.5-1.6,1.1c0,0.7,0.6,0.8,1.3,1c0.8,0.2,1,0.2,1,0.4c0,0.2-0.2,0.3-0.7,0.3
	c-0.4,0-1.1-0.2-1.6-0.4h0v0.8C230.4,158.8,231,158.9,231.6,158.9z M234,158.8h0.8v-1.4h0.5l1.2,1.4h1v0l-1.5-1.8l1.4-1.6v0h-1
	l-1.1,1.3h-0.5v-1.3H234V158.8z M241.3,158.9c1.4,0,1.6-0.7,1.6-1.1c0-0.7-0.6-0.9-1.3-1c-0.8-0.2-0.9-0.2-0.9-0.4
	c0-0.2,0.2-0.3,0.7-0.3c0.5,0,1,0.2,1.4,0.4h0v-0.8c-0.4-0.2-0.9-0.3-1.3-0.3c-1.1,0-1.6,0.5-1.6,1.1c0,0.7,0.6,0.8,1.3,1
	c0.8,0.2,1,0.2,1,0.4c0,0.2-0.2,0.3-0.7,0.3c-0.4,0-1.1-0.2-1.6-0.4h0v0.8C240.1,158.8,240.7,158.9,241.3,158.9z M245.5,158.9
	c0.6,0,1.1-0.2,1.4-0.4v-0.8h0c-0.4,0.3-0.8,0.5-1.3,0.5c-0.8,0-1.1-0.5-1.1-1.1c0-0.6,0.4-1,1.1-1c0.5,0,0.9,0.2,1.3,0.5h0v-0.8
	c-0.3-0.2-0.7-0.4-1.3-0.4c-1.3,0-2,0.8-2,1.8C243.5,158.1,244.1,158.9,245.5,158.9z M249.5,159c1.2,0,2-0.7,2-1.8
	c0-1.1-0.8-1.8-1.9-1.8s-2,0.7-2,1.8S248.3,159,249.5,159z M249.5,158.2c-0.7,0-1.1-0.4-1.1-1.1c0-0.7,0.4-1.1,1.1-1.1
	c0.7,0,1.1,0.4,1.1,1.1C250.6,157.8,250.2,158.2,249.5,158.2z M252.4,158.8h0.8v-1h0.7l0.9,1h1.1v0l-1.1-1.1
	c0.6-0.2,0.9-0.5,0.9-1.1c0-0.9-0.5-1.2-1.6-1.2h-1.7V158.8z M253.3,157.1v-1h0.9c0.4,0,0.6,0.1,0.6,0.5c0,0.3-0.2,0.5-0.6,0.5
	H253.3z M256.7,158.8h3l0-0.7h-2.2v-0.7h1.7v-0.7h-1.7v-0.6h2.1l0-0.7h-2.9V158.8z"/>
<path class="st21" d="M265.9,157.2c0-0.8,0.3-1.8,1.2-2.7h-0.9c-0.8,0.9-1.1,1.9-1.1,2.7s0.3,1.9,1.1,2.7h0.9
	C266.2,159,265.9,158.1,265.9,157.2z M269.3,159c1.1,0,1.8-0.7,1.8-1.8c0-1.1-0.7-1.8-1.8-1.8c-1.1,0-1.8,0.7-1.8,1.8
	C267.5,158.3,268.2,159,269.3,159z M269.3,158.2c-0.6,0-1-0.4-1-1.1c0-0.7,0.4-1.1,1-1.1c0.6,0,1,0.4,1,1.1
	C270.3,157.9,269.8,158.2,269.3,158.2z M271.9,157.4h1.9v-0.8h-1.9V157.4z M275.1,158.8h0.8v-3.4h-1.5l-0.1,0.7h0.7V158.8z
	 M278.8,159c1.1,0,1.8-0.7,1.8-1.8c0-1.1-0.7-1.8-1.8-1.8s-1.8,0.7-1.8,1.8C277,158.3,277.7,159,278.8,159z M278.8,158.2
	c-0.6,0-1-0.4-1-1.1c0-0.7,0.4-1.1,1-1.1c0.6,0,1,0.4,1,1.1C279.8,157.9,279.4,158.2,278.8,158.2z M282.2,157.2
	c0,0.8-0.3,1.8-1.2,2.7h0.9c0.8-0.9,1.1-1.9,1.1-2.7s-0.3-1.9-1.1-2.7H281C281.9,155.5,282.2,156.4,282.2,157.2z"/>
<path class="st15" d="M358,180.1h2.3v-2.5h2l0.1-2h-2.1v-6.7h-4.5l-4.3,6.9v1.8h6.5V180.1z M358,171v4.5h-3.8l2.8-4.5H358z"/>
</svg>
