<?xml version="1.0" encoding="utf-8"?>
<!-- Generator: Adobe Illustrator 25.2.3, SVG Export Plug-In . SVG Version: 6.00 Build 0)  -->
<svg version="1.1" id="Layer_1" xmlns="http://www.w3.org/2000/svg" xmlns:xlink="http://www.w3.org/1999/xlink" x="0px" y="0px"
	 viewBox="0 0 454 242" style="enable-background:new 0 0 454 242;" xml:space="preserve">
<style type="text/css">
	.st0{fill-rule:evenodd;clip-rule:evenodd;fill:url(#SVGID_1_);}
	.st1{fill-rule:evenodd;clip-rule:evenodd;fill:url(#SVGID_2_);}
	.st2{fill-rule:evenodd;clip-rule:evenodd;fill:url(#SVGID_3_);}
	.st3{fill-rule:evenodd;clip-rule:evenodd;fill:url(#SVGID_4_);}
	.st4{fill-rule:evenodd;clip-rule:evenodd;fill:url(#SVGID_5_);}
	.st5{fill-rule:evenodd;clip-rule:evenodd;fill:url(#SVGID_6_);}
	.st6{fill-rule:evenodd;clip-rule:evenodd;fill:#00D278;}
	.st7{fill:#141414;fill-opacity:0.9;filter:url(#dropShadow);}
	.st8{fill:#B9B9B9;}
	.st9{fill-rule:evenodd;clip-rule:evenodd;fill:#5F5F5F;}
	.st10{fill-rule:evenodd;clip-rule:evenodd;fill:url(#SVGID_7_);}
	.st11{fill-rule:evenodd;clip-rule:evenodd;fill:#00CC66;}
	.st12{fill:#FFFFFF;}
	.st13{fill:#00CC66;}
	.st14{fill:#F4F4F2;}
	.st15{fill:#5F5F5F;}
	.st16{fill:#FFFFFF;fill-opacity:0.85;filter:url(#dropShadow_lg);}
	.st17{fill:#141414;}
	.st18{fill-rule:evenodd;clip-rule:evenodd;fill:#141414;}
	.st19{fill:none;stroke:#B9B9B9;stroke-width:1.1968;}
	.st20{filter:url(#dropShadow);}
</style>
<defs>
	<filter id="dropShadow" height="130%">
		<feGaussianBlur in="SourceAlpha" stdDeviation="5"/> <!-- stdDeviation is how much to blur -->
		<feOffset dx="0" dy="5" result="offsetblur"/> <!-- how much to offset -->
		<feComponentTransfer>
		<feFuncA type="linear" slope="0.25"/> <!-- slope is the opacity of the shadow -->
		</feComponentTransfer>
		<feMerge> 
			<feMergeNode/> <!-- this contains the offset blurred image -->
			<feMergeNode in="SourceGraphic"/> <!-- this contains the element that the filter is applied to -->
		</feMerge>
	</filter>
	<filter id="dropShadow_lg" height="200%">
		<feGaussianBlur in="SourceAlpha" stdDeviation="8"/> <!-- stdDeviation is how much to blur -->
		<feOffset dx="0" dy="8" result="offsetblur"/> <!-- how much to offset -->
		<feComponentTransfer>
		<feFuncA type="linear" slope="0.15"/> <!-- slope is the opacity of the shadow -->
		</feComponentTransfer>
		<feMerge> 
			<feMergeNode/> <!-- this contains the offset blurred image -->
			<feMergeNode in="SourceGraphic"/> <!-- this contains the element that the filter is applied to -->
		</feMerge>
	</filter>
</defs>
<linearGradient id="SVGID_1_" gradientUnits="userSpaceOnUse" x1="179.0782" y1="19.9583" x2="191.8022" y2="86.1463" gradientTransform="matrix(1 0 0 -1 0 244)">
	<stop  offset="0" style="stop-color:#00D278"/>
	<stop  offset="1" style="stop-color:#00D278;stop-opacity:0"/>
</linearGradient>
<path class="st0" d="M196.1,137.5c-7,1.6-11.4,8.5-9.9,15.5c2.7,12.2-2.2,25.7-6,32.1c0,0,0,0,0,0c-0.8,1.4-1.7,2.8-2.7,4.1
	c0,0,0,0,0,0c-3.6,4.9-8,9.1-13.1,12.4c-6,3.9-7.7,12-3.8,18c3.9,6,12,7.7,18,3.8c7.7-5,14.4-11.4,19.8-18.8l0,0
	c1.5-2,2.8-4.1,4.1-6.2l0,0c5.5-9.3,13.7-29.7,9-50.9C210.1,140.4,203.1,136,196.1,137.5z"/>
<linearGradient id="SVGID_2_" gradientUnits="userSpaceOnUse" x1="184.0759" y1="149.5377" x2="90.6416" y2="102.4431" gradientTransform="matrix(1 0 0 -1 0 244)">
	<stop  offset="0" style="stop-color:#00D278"/>
	<stop  offset="1" style="stop-color:#00D278;stop-opacity:0"/>
</linearGradient>
<path class="st1" d="M141.7,110.3c14.5,1.2,27,8.4,35.3,19c4.4,5.6,12.6,6.7,18.3,2.3c5.7-4.4,6.7-12.5,2.3-18.1
	c-12.6-16-31.6-27-53.6-28.9c-4.7-0.4-9.4-0.4-14,0.1l0,0c-15.6,1.5-30,7.8-41.5,17.4c0,0,0,0,0,0c-7.4,6.2-13.6,13.8-18.2,22.5
	c-3.3,6.3-0.9,14.1,5.5,17.5c6.4,3.3,14.2,0.9,17.6-5.4c3-5.7,7.1-10.7,12-14.8l0,0c7.6-6.3,17-10.4,27.2-11.5
	C135.5,110,138.5,110,141.7,110.3z"/>
<linearGradient id="SVGID_3_" gradientUnits="userSpaceOnUse" x1="92.5793" y1="58.1256" x2="138.8232" y2="45.1096" gradientTransform="matrix(1 0 0 -1 0 244)">
	<stop  offset="0" style="stop-color:#00D278"/>
	<stop  offset="1" style="stop-color:#00D278;stop-opacity:0"/>
</linearGradient>
<path class="st2" d="M76.1,141.5c-7.1-0.6-13.4,4.7-14,11.8c-1.7,20.3,4.8,39.5,16.7,54.1c12.5,15.4,31.1,25.9,52.5,27.7
	c7.1,0.6,13.4-4.7,14-11.8c0.6-7.1-4.7-13.4-11.8-14c-14-1.2-26.2-8.1-34.5-18.2h0c-7.9-9.7-12.1-22.2-11-35.6
	C88.5,148.4,83.2,142.1,76.1,141.5z"/>
<linearGradient id="SVGID_4_" gradientUnits="userSpaceOnUse" x1="141.637" y1="144.6061" x2="105.508" y2="138.9909" gradientTransform="matrix(1 0 0 -1 0 244)">
	<stop  offset="0" style="stop-color:#00B464"/>
	<stop  offset="1" style="stop-color:#00B464;stop-opacity:0"/>
</linearGradient>
<path class="st3" d="M105.4,121.5c7.5-6.3,16.8-10.3,26.9-11.3l-2.6-25.4c-15.4,1.5-29.6,7.7-40.9,17.2L105.4,121.5z"/>
<linearGradient id="SVGID_5_" gradientUnits="userSpaceOnUse" x1="85.159" y1="48.8601" x2="104.6753" y2="31.1251" gradientTransform="matrix(1 0 0 -1 0 244)">
	<stop  offset="0" style="stop-color:#00B464"/>
	<stop  offset="1" style="stop-color:#00B464;stop-opacity:0"/>
</linearGradient>
<path class="st4" d="M118.8,206.2c-7.7-3.2-14.4-8.3-19.5-14.7L79.1,208c7.8,9.7,18,17.4,29.7,22.3L118.8,206.2z"/>
<linearGradient id="SVGID_6_" gradientUnits="userSpaceOnUse" x1="187.669" y1="39.9124" x2="196.771" y2="66.3484" gradientTransform="matrix(1 0 0 -1 0 244)">
	<stop  offset="0" style="stop-color:#00B464"/>
	<stop  offset="1" style="stop-color:#00B464;stop-opacity:0"/>
</linearGradient>
<path class="st5" d="M186.9,164c-0.7,7.8-3,15-6.7,21.3l22.4,13.3c5.6-9.6,9.2-20.6,10.2-32.4L186.9,164z"/>
<path class="st6" d="M142.1,110.5c14.4,1.2,26.8,8.4,35,19.1c4.4,5.7,12.5,6.7,18.2,2.3c5.6-4.4,6.7-12.6,2.3-18.3
	c-12.5-16.1-31.4-27.2-53.3-29c-4.7-0.4-9.3-0.3-13.9,0.1c-7.1,0.7-12.3,7.1-11.6,14.2c0.7,7.2,7,12.4,14.1,11.7
	C135.9,110.3,138.9,110.2,142.1,110.5z"/>
<path class="st6" d="M198,180.2c-6.2-3.7-14.1-1.6-17.8,4.6c-0.8,1.4-1.7,2.8-2.7,4.1c0,0,0,0,0,0c-3.6,4.9-8,9.1-13.1,12.5
	c-6,3.9-7.7,12-3.8,18.1c3.9,6,12,7.7,18,3.8c7.7-5,14.4-11.4,19.8-18.9l0,0c1.5-2,2.8-4.1,4.1-6.3
	C206.2,191.9,204.2,183.9,198,180.2z"/>
<path class="st6" d="M76,141.5c-7.1-0.6-13.3,4.7-13.9,11.8c-1.7,20.3,4.7,39.4,16.6,54.1c4.5,5.6,12.6,6.4,18.1,1.9
	c5.5-4.5,6.4-12.7,1.9-18.3c-7.8-9.6-12-22.2-10.9-35.6C88.3,148.4,83.1,142.1,76,141.5z"/>
<g>
	<path class="st7" d="M32.3,16h311.8c7.9,0,14.3,6.4,14.3,14.3v102.8c0,7.9-6.4,14.3-14.3,14.3H32.3c-7.9,0-14.3-6.4-14.3-14.3V30.3
		C18,22.4,24.4,16,32.3,16z"/>
</g>
<path class="st8" d="M35,134.3c2.1,0,3.2-1.6,3.2-3.5c0-1.9-1.1-3.5-3.2-3.5c-2.2,0-3.2,1.6-3.2,3.5C31.8,132.7,32.8,134.3,35,134.3
	z M35,133c-1.1,0-1.7-0.8-1.7-2.2c0-1.4,0.6-2.2,1.7-2.2c1.1,0,1.7,0.8,1.7,2.2C36.7,132.2,36.1,133,35,133z"/>
<path class="st8" d="M32.3,101.2h5.3V100h-3.3l1.2-0.8c1.5-1.1,2.2-1.6,2.2-2.7c0-1.2-0.9-2-2.5-2c-0.7,0-1.7,0.2-2.6,0.9v1.4h0
	c1-0.8,1.8-1.1,2.5-1.1c0.7,0,1,0.3,1,0.8c0,0.6-0.6,1-1.8,1.9l-2,1.5V101.2z"/>
<path class="st8" d="M34.9,50.1c1.8,0,2.9-1.1,2.9-2.2c0-0.5-0.1-0.9-0.4-1.3c-0.6-0.6-1.5-0.8-3.2-0.8h-0.3l0-1.2h3.4l0-1.3h-4.6
	l-0.1,3.8h1.1c1.7,0,2.2,0.1,2.4,0.4c0.1,0.1,0.2,0.3,0.2,0.5c0,0.4-0.3,1-1.4,1c-0.6,0-1.5-0.2-2.5-0.5h0v1.4
	C33.2,50,34.2,50.1,34.9,50.1z"/>
<path class="st9" d="M50.9,129.7c0-0.4,0.3-0.7,0.7-0.7h2c0.4,0,0.7,0.3,0.7,0.7c0,0.4-0.3,0.7-0.7,0.7h-2
	C51.2,130.4,50.9,130.1,50.9,129.7z M56.8,129.7c0-0.4,0.3-0.7,0.7-0.7h4c0.4,0,0.7,0.3,0.7,0.7c0,0.4-0.3,0.7-0.7,0.7h-4
	C57.1,130.4,56.8,130.1,56.8,129.7z M64.7,129.7c0-0.4,0.3-0.7,0.7-0.7h4c0.4,0,0.7,0.3,0.7,0.7c0,0.4-0.3,0.7-0.7,0.7h-4
	C65,130.4,64.7,130.1,64.7,129.7z M72.7,129.7c0-0.4,0.3-0.7,0.7-0.7h4c0.4,0,0.7,0.3,0.7,0.7c0,0.4-0.3,0.7-0.7,0.7h-4
	C72.9,130.4,72.7,130.1,72.7,129.7z M80.6,129.7c0-0.4,0.3-0.7,0.7-0.7h4c0.4,0,0.7,0.3,0.7,0.7c0,0.4-0.3,0.7-0.7,0.7h-4
	C80.9,130.4,80.6,130.1,80.6,129.7z M88.5,129.7c0-0.4,0.3-0.7,0.7-0.7h4c0.4,0,0.7,0.3,0.7,0.7c0,0.4-0.3,0.7-0.7,0.7h-4
	C88.8,130.4,88.5,130.1,88.5,129.7z M96.4,129.7c0-0.4,0.3-0.7,0.7-0.7h4c0.4,0,0.7,0.3,0.7,0.7c0,0.4-0.3,0.7-0.7,0.7h-4
	C96.7,130.4,96.4,130.1,96.4,129.7z M104.3,129.7c0-0.4,0.3-0.7,0.7-0.7h4c0.4,0,0.7,0.3,0.7,0.7c0,0.4-0.3,0.7-0.7,0.7h-4
	C104.6,130.4,104.3,130.1,104.3,129.7z M112.3,129.7c0-0.4,0.3-0.7,0.7-0.7h4c0.4,0,0.7,0.3,0.7,0.7c0,0.4-0.3,0.7-0.7,0.7h-4
	C112.6,130.4,112.3,130.1,112.3,129.7z M120.2,129.7c0-0.4,0.3-0.7,0.7-0.7h4c0.4,0,0.7,0.3,0.7,0.7c0,0.4-0.3,0.7-0.7,0.7h-4
	C120.5,130.4,120.2,130.1,120.2,129.7z M128.1,129.7c0-0.4,0.3-0.7,0.7-0.7h4c0.4,0,0.7,0.3,0.7,0.7c0,0.4-0.3,0.7-0.7,0.7h-4
	C128.4,130.4,128.1,130.1,128.1,129.7z M136,129.7c0-0.4,0.3-0.7,0.7-0.7h4c0.4,0,0.7,0.3,0.7,0.7c0,0.4-0.3,0.7-0.7,0.7h-4
	C136.3,130.4,136,130.1,136,129.7z M144,129.7c0-0.4,0.3-0.7,0.7-0.7h4c0.4,0,0.7,0.3,0.7,0.7c0,0.4-0.3,0.7-0.7,0.7h-4
	C144.2,130.4,144,130.1,144,129.7z M151.9,129.7c0-0.4,0.3-0.7,0.7-0.7h4c0.4,0,0.7,0.3,0.7,0.7c0,0.4-0.3,0.7-0.7,0.7h-4
	C152.2,130.4,151.9,130.1,151.9,129.7z M159.8,129.7c0-0.4,0.3-0.7,0.7-0.7h4c0.4,0,0.7,0.3,0.7,0.7c0,0.4-0.3,0.7-0.7,0.7h-4
	C160.1,130.4,159.8,130.1,159.8,129.7z M167.7,129.7c0-0.4,0.3-0.7,0.7-0.7h4c0.4,0,0.7,0.3,0.7,0.7c0,0.4-0.3,0.7-0.7,0.7h-4
	C168,130.4,167.7,130.1,167.7,129.7z M175.6,129.7c0-0.4,0.3-0.7,0.7-0.7h4c0.4,0,0.7,0.3,0.7,0.7c0,0.4-0.3,0.7-0.7,0.7h-4
	C175.9,130.4,175.6,130.1,175.6,129.7z M183.6,129.7c0-0.4,0.3-0.7,0.7-0.7h4c0.4,0,0.7,0.3,0.7,0.7c0,0.4-0.3,0.7-0.7,0.7h-4
	C183.9,130.4,183.6,130.1,183.6,129.7z M191.5,129.7c0-0.4,0.3-0.7,0.7-0.7h4c0.4,0,0.7,0.3,0.7,0.7c0,0.4-0.3,0.7-0.7,0.7h-4
	C191.8,130.4,191.5,130.1,191.5,129.7z M199.4,129.7c0-0.4,0.3-0.7,0.7-0.7h4c0.4,0,0.7,0.3,0.7,0.7c0,0.4-0.3,0.7-0.7,0.7h-4
	C199.7,130.4,199.4,130.1,199.4,129.7z M207.3,129.7c0-0.4,0.3-0.7,0.7-0.7h4c0.4,0,0.7,0.3,0.7,0.7c0,0.4-0.3,0.7-0.7,0.7h-4
	C207.6,130.4,207.3,130.1,207.3,129.7z M215.3,129.7c0-0.4,0.3-0.7,0.7-0.7h4c0.4,0,0.7,0.3,0.7,0.7c0,0.4-0.3,0.7-0.7,0.7h-4
	C215.6,130.4,215.3,130.1,215.3,129.7z M223.2,129.7c0-0.4,0.3-0.7,0.7-0.7h4c0.4,0,0.7,0.3,0.7,0.7c0,0.4-0.3,0.7-0.7,0.7h-4
	C223.5,130.4,223.2,130.1,223.2,129.7z M231.1,129.7c0-0.4,0.3-0.7,0.7-0.7h4c0.4,0,0.7,0.3,0.7,0.7c0,0.4-0.3,0.7-0.7,0.7h-4
	C231.4,130.4,231.1,130.1,231.1,129.7z M239,129.7c0-0.4,0.3-0.7,0.7-0.7h4c0.4,0,0.7,0.3,0.7,0.7c0,0.4-0.3,0.7-0.7,0.7h-4
	C239.3,130.4,239,130.1,239,129.7z M246.9,129.7c0-0.4,0.3-0.7,0.7-0.7h4c0.4,0,0.7,0.3,0.7,0.7c0,0.4-0.3,0.7-0.7,0.7h-4
	C247.2,130.4,246.9,130.1,246.9,129.7z M254.9,129.7c0-0.4,0.3-0.7,0.7-0.7h4c0.4,0,0.7,0.3,0.7,0.7c0,0.4-0.3,0.7-0.7,0.7h-4
	C255.2,130.4,254.9,130.1,254.9,129.7z M262.8,129.7c0-0.4,0.3-0.7,0.7-0.7h4c0.4,0,0.7,0.3,0.7,0.7c0,0.4-0.3,0.7-0.7,0.7h-4
	C263.1,130.4,262.8,130.1,262.8,129.7z M270.7,129.7c0-0.4,0.3-0.7,0.7-0.7h4c0.4,0,0.7,0.3,0.7,0.7c0,0.4-0.3,0.7-0.7,0.7h-4
	C271,130.4,270.7,130.1,270.7,129.7z M278.6,129.7c0-0.4,0.3-0.7,0.7-0.7h4c0.4,0,0.7,0.3,0.7,0.7c0,0.4-0.3,0.7-0.7,0.7h-4
	C278.9,130.4,278.6,130.1,278.6,129.7z M286.6,129.7c0-0.4,0.3-0.7,0.7-0.7h4c0.4,0,0.7,0.3,0.7,0.7c0,0.4-0.3,0.7-0.7,0.7h-4
	C286.9,130.4,286.6,130.1,286.6,129.7z M294.5,129.7c0-0.4,0.3-0.7,0.7-0.7h4c0.4,0,0.7,0.3,0.7,0.7c0,0.4-0.3,0.7-0.7,0.7h-4
	C294.8,130.4,294.5,130.1,294.5,129.7z M302.4,129.7c0-0.4,0.3-0.7,0.7-0.7h4c0.4,0,0.7,0.3,0.7,0.7c0,0.4-0.3,0.7-0.7,0.7h-4
	C302.7,130.4,302.4,130.1,302.4,129.7z M310.3,129.7c0-0.4,0.3-0.7,0.7-0.7h4c0.4,0,0.7,0.3,0.7,0.7c0,0.4-0.3,0.7-0.7,0.7h-4
	C310.6,130.4,310.3,130.1,310.3,129.7z M318.2,129.7c0-0.4,0.3-0.7,0.7-0.7h4c0.4,0,0.7,0.3,0.7,0.7c0,0.4-0.3,0.7-0.7,0.7h-4
	C318.5,130.4,318.2,130.1,318.2,129.7z M326.2,129.7c0-0.4,0.3-0.7,0.7-0.7h4c0.4,0,0.7,0.3,0.7,0.7c0,0.4-0.3,0.7-0.7,0.7h-4
	C326.5,130.4,326.2,130.1,326.2,129.7z M334.1,129.7c0-0.4,0.3-0.7,0.7-0.7h4c0.4,0,0.7,0.3,0.7,0.7c0,0.4-0.3,0.7-0.7,0.7h-4
	C334.4,130.4,334.1,130.1,334.1,129.7z M342,129.7c0-0.4,0.3-0.7,0.7-0.7h2c0.4,0,0.7,0.3,0.7,0.7c0,0.4-0.3,0.7-0.7,0.7h-2
	C342.3,130.4,342,130.1,342,129.7z"/>
<path class="st9" d="M50.9,98.2c0-0.4,0.3-0.7,0.7-0.7h2c0.4,0,0.7,0.3,0.7,0.7c0,0.4-0.3,0.7-0.7,0.7h-2
	C51.2,98.8,50.9,98.5,50.9,98.2z M56.8,98.2c0-0.4,0.3-0.7,0.7-0.7h4c0.4,0,0.7,0.3,0.7,0.7c0,0.4-0.3,0.7-0.7,0.7h-4
	C57.1,98.8,56.8,98.5,56.8,98.2z M64.7,98.2c0-0.4,0.3-0.7,0.7-0.7h4c0.4,0,0.7,0.3,0.7,0.7c0,0.4-0.3,0.7-0.7,0.7h-4
	C65,98.8,64.7,98.5,64.7,98.2z M72.7,98.2c0-0.4,0.3-0.7,0.7-0.7h4c0.4,0,0.7,0.3,0.7,0.7c0,0.4-0.3,0.7-0.7,0.7h-4
	C72.9,98.8,72.7,98.5,72.7,98.2z M80.6,98.2c0-0.4,0.3-0.7,0.7-0.7h4c0.4,0,0.7,0.3,0.7,0.7c0,0.4-0.3,0.7-0.7,0.7h-4
	C80.9,98.8,80.6,98.5,80.6,98.2z M88.5,98.2c0-0.4,0.3-0.7,0.7-0.7h4c0.4,0,0.7,0.3,0.7,0.7c0,0.4-0.3,0.7-0.7,0.7h-4
	C88.8,98.8,88.5,98.5,88.5,98.2z M96.4,98.2c0-0.4,0.3-0.7,0.7-0.7h4c0.4,0,0.7,0.3,0.7,0.7c0,0.4-0.3,0.7-0.7,0.7h-4
	C96.7,98.8,96.4,98.5,96.4,98.2z M104.3,98.2c0-0.4,0.3-0.7,0.7-0.7h4c0.4,0,0.7,0.3,0.7,0.7c0,0.4-0.3,0.7-0.7,0.7h-4
	C104.6,98.8,104.3,98.5,104.3,98.2z M112.3,98.2c0-0.4,0.3-0.7,0.7-0.7h4c0.4,0,0.7,0.3,0.7,0.7c0,0.4-0.3,0.7-0.7,0.7h-4
	C112.6,98.8,112.3,98.5,112.3,98.2z M120.2,98.2c0-0.4,0.3-0.7,0.7-0.7h4c0.4,0,0.7,0.3,0.7,0.7c0,0.4-0.3,0.7-0.7,0.7h-4
	C120.5,98.8,120.2,98.5,120.2,98.2z M128.1,98.2c0-0.4,0.3-0.7,0.7-0.7h4c0.4,0,0.7,0.3,0.7,0.7c0,0.4-0.3,0.7-0.7,0.7h-4
	C128.4,98.8,128.1,98.5,128.1,98.2z M136,98.2c0-0.4,0.3-0.7,0.7-0.7h4c0.4,0,0.7,0.3,0.7,0.7c0,0.4-0.3,0.7-0.7,0.7h-4
	C136.3,98.8,136,98.5,136,98.2z M144,98.2c0-0.4,0.3-0.7,0.7-0.7h4c0.4,0,0.7,0.3,0.7,0.7c0,0.4-0.3,0.7-0.7,0.7h-4
	C144.2,98.8,144,98.5,144,98.2z M151.9,98.2c0-0.4,0.3-0.7,0.7-0.7h4c0.4,0,0.7,0.3,0.7,0.7c0,0.4-0.3,0.7-0.7,0.7h-4
	C152.2,98.8,151.9,98.5,151.9,98.2z M159.8,98.2c0-0.4,0.3-0.7,0.7-0.7h4c0.4,0,0.7,0.3,0.7,0.7c0,0.4-0.3,0.7-0.7,0.7h-4
	C160.1,98.8,159.8,98.5,159.8,98.2z M167.7,98.2c0-0.4,0.3-0.7,0.7-0.7h4c0.4,0,0.7,0.3,0.7,0.7c0,0.4-0.3,0.7-0.7,0.7h-4
	C168,98.8,167.7,98.5,167.7,98.2z M175.6,98.2c0-0.4,0.3-0.7,0.7-0.7h4c0.4,0,0.7,0.3,0.7,0.7c0,0.4-0.3,0.7-0.7,0.7h-4
	C175.9,98.8,175.6,98.5,175.6,98.2z M183.6,98.2c0-0.4,0.3-0.7,0.7-0.7h4c0.4,0,0.7,0.3,0.7,0.7c0,0.4-0.3,0.7-0.7,0.7h-4
	C183.9,98.8,183.6,98.5,183.6,98.2z M191.5,98.2c0-0.4,0.3-0.7,0.7-0.7h4c0.4,0,0.7,0.3,0.7,0.7c0,0.4-0.3,0.7-0.7,0.7h-4
	C191.8,98.8,191.5,98.5,191.5,98.2z M199.4,98.2c0-0.4,0.3-0.7,0.7-0.7h4c0.4,0,0.7,0.3,0.7,0.7c0,0.4-0.3,0.7-0.7,0.7h-4
	C199.7,98.8,199.4,98.5,199.4,98.2z M207.3,98.2c0-0.4,0.3-0.7,0.7-0.7h4c0.4,0,0.7,0.3,0.7,0.7c0,0.4-0.3,0.7-0.7,0.7h-4
	C207.6,98.8,207.3,98.5,207.3,98.2z M215.3,98.2c0-0.4,0.3-0.7,0.7-0.7h4c0.4,0,0.7,0.3,0.7,0.7c0,0.4-0.3,0.7-0.7,0.7h-4
	C215.6,98.8,215.3,98.5,215.3,98.2z M223.2,98.2c0-0.4,0.3-0.7,0.7-0.7h4c0.4,0,0.7,0.3,0.7,0.7c0,0.4-0.3,0.7-0.7,0.7h-4
	C223.5,98.8,223.2,98.5,223.2,98.2z M231.1,98.2c0-0.4,0.3-0.7,0.7-0.7h4c0.4,0,0.7,0.3,0.7,0.7c0,0.4-0.3,0.7-0.7,0.7h-4
	C231.4,98.8,231.1,98.5,231.1,98.2z M239,98.2c0-0.4,0.3-0.7,0.7-0.7h4c0.4,0,0.7,0.3,0.7,0.7c0,0.4-0.3,0.7-0.7,0.7h-4
	C239.3,98.8,239,98.5,239,98.2z M246.9,98.2c0-0.4,0.3-0.7,0.7-0.7h4c0.4,0,0.7,0.3,0.7,0.7c0,0.4-0.3,0.7-0.7,0.7h-4
	C247.2,98.8,246.9,98.5,246.9,98.2z M254.9,98.2c0-0.4,0.3-0.7,0.7-0.7h4c0.4,0,0.7,0.3,0.7,0.7c0,0.4-0.3,0.7-0.7,0.7h-4
	C255.2,98.8,254.9,98.5,254.9,98.2z M262.8,98.2c0-0.4,0.3-0.7,0.7-0.7h4c0.4,0,0.7,0.3,0.7,0.7c0,0.4-0.3,0.7-0.7,0.7h-4
	C263.1,98.8,262.8,98.5,262.8,98.2z M270.7,98.2c0-0.4,0.3-0.7,0.7-0.7h4c0.4,0,0.7,0.3,0.7,0.7c0,0.4-0.3,0.7-0.7,0.7h-4
	C271,98.8,270.7,98.5,270.7,98.2z M278.6,98.2c0-0.4,0.3-0.7,0.7-0.7h4c0.4,0,0.7,0.3,0.7,0.7c0,0.4-0.3,0.7-0.7,0.7h-4
	C278.9,98.8,278.6,98.5,278.6,98.2z M286.6,98.2c0-0.4,0.3-0.7,0.7-0.7h4c0.4,0,0.7,0.3,0.7,0.7c0,0.4-0.3,0.7-0.7,0.7h-4
	C286.9,98.8,286.6,98.5,286.6,98.2z M294.5,98.2c0-0.4,0.3-0.7,0.7-0.7h4c0.4,0,0.7,0.3,0.7,0.7c0,0.4-0.3,0.7-0.7,0.7h-4
	C294.8,98.8,294.5,98.5,294.5,98.2z M302.4,98.2c0-0.4,0.3-0.7,0.7-0.7h4c0.4,0,0.7,0.3,0.7,0.7c0,0.4-0.3,0.7-0.7,0.7h-4
	C302.7,98.8,302.4,98.5,302.4,98.2z M310.3,98.2c0-0.4,0.3-0.7,0.7-0.7h4c0.4,0,0.7,0.3,0.7,0.7c0,0.4-0.3,0.7-0.7,0.7h-4
	C310.6,98.8,310.3,98.5,310.3,98.2z M318.2,98.2c0-0.4,0.3-0.7,0.7-0.7h4c0.4,0,0.7,0.3,0.7,0.7c0,0.4-0.3,0.7-0.7,0.7h-4
	C318.5,98.8,318.2,98.5,318.2,98.2z M326.2,98.2c0-0.4,0.3-0.7,0.7-0.7h4c0.4,0,0.7,0.3,0.7,0.7c0,0.4-0.3,0.7-0.7,0.7h-4
	C326.5,98.8,326.2,98.5,326.2,98.2z M334.1,98.2c0-0.4,0.3-0.7,0.7-0.7h4c0.4,0,0.7,0.3,0.7,0.7c0,0.4-0.3,0.7-0.7,0.7h-4
	C334.4,98.8,334.1,98.5,334.1,98.2z M342,98.2c0-0.4,0.3-0.7,0.7-0.7h2c0.4,0,0.7,0.3,0.7,0.7c0,0.4-0.3,0.7-0.7,0.7h-2
	C342.3,98.8,342,98.5,342,98.2z"/>
<path class="st9" d="M50.9,46.9c0-0.4,0.3-0.7,0.7-0.7h2c0.4,0,0.7,0.3,0.7,0.7c0,0.4-0.3,0.7-0.7,0.7h-2
	C51.2,47.5,50.9,47.3,50.9,46.9z M56.8,46.9c0-0.4,0.3-0.7,0.7-0.7h4c0.4,0,0.7,0.3,0.7,0.7c0,0.4-0.3,0.7-0.7,0.7h-4
	C57.1,47.5,56.8,47.3,56.8,46.9z M64.7,46.9c0-0.4,0.3-0.7,0.7-0.7h4c0.4,0,0.7,0.3,0.7,0.7c0,0.4-0.3,0.7-0.7,0.7h-4
	C65,47.5,64.7,47.3,64.7,46.9z M72.7,46.9c0-0.4,0.3-0.7,0.7-0.7h4c0.4,0,0.7,0.3,0.7,0.7c0,0.4-0.3,0.7-0.7,0.7h-4
	C72.9,47.5,72.7,47.3,72.7,46.9z M80.6,46.9c0-0.4,0.3-0.7,0.7-0.7h4c0.4,0,0.7,0.3,0.7,0.7c0,0.4-0.3,0.7-0.7,0.7h-4
	C80.9,47.5,80.6,47.3,80.6,46.9z M88.5,46.9c0-0.4,0.3-0.7,0.7-0.7h4c0.4,0,0.7,0.3,0.7,0.7c0,0.4-0.3,0.7-0.7,0.7h-4
	C88.8,47.5,88.5,47.3,88.5,46.9z M96.4,46.9c0-0.4,0.3-0.7,0.7-0.7h4c0.4,0,0.7,0.3,0.7,0.7c0,0.4-0.3,0.7-0.7,0.7h-4
	C96.7,47.5,96.4,47.3,96.4,46.9z M104.3,46.9c0-0.4,0.3-0.7,0.7-0.7h4c0.4,0,0.7,0.3,0.7,0.7c0,0.4-0.3,0.7-0.7,0.7h-4
	C104.6,47.5,104.3,47.3,104.3,46.9z M112.3,46.9c0-0.4,0.3-0.7,0.7-0.7h4c0.4,0,0.7,0.3,0.7,0.7c0,0.4-0.3,0.7-0.7,0.7h-4
	C112.6,47.5,112.3,47.3,112.3,46.9z M120.2,46.9c0-0.4,0.3-0.7,0.7-0.7h4c0.4,0,0.7,0.3,0.7,0.7c0,0.4-0.3,0.7-0.7,0.7h-4
	C120.5,47.5,120.2,47.3,120.2,46.9z M128.1,46.9c0-0.4,0.3-0.7,0.7-0.7h4c0.4,0,0.7,0.3,0.7,0.7c0,0.4-0.3,0.7-0.7,0.7h-4
	C128.4,47.5,128.1,47.3,128.1,46.9z M136,46.9c0-0.4,0.3-0.7,0.7-0.7h4c0.4,0,0.7,0.3,0.7,0.7c0,0.4-0.3,0.7-0.7,0.7h-4
	C136.3,47.5,136,47.3,136,46.9z M144,46.9c0-0.4,0.3-0.7,0.7-0.7h4c0.4,0,0.7,0.3,0.7,0.7c0,0.4-0.3,0.7-0.7,0.7h-4
	C144.2,47.5,144,47.3,144,46.9z M151.9,46.9c0-0.4,0.3-0.7,0.7-0.7h4c0.4,0,0.7,0.3,0.7,0.7c0,0.4-0.3,0.7-0.7,0.7h-4
	C152.2,47.5,151.9,47.3,151.9,46.9z M159.8,46.9c0-0.4,0.3-0.7,0.7-0.7h4c0.4,0,0.7,0.3,0.7,0.7c0,0.4-0.3,0.7-0.7,0.7h-4
	C160.1,47.5,159.8,47.3,159.8,46.9z M167.7,46.9c0-0.4,0.3-0.7,0.7-0.7h4c0.4,0,0.7,0.3,0.7,0.7c0,0.4-0.3,0.7-0.7,0.7h-4
	C168,47.5,167.7,47.3,167.7,46.9z M175.6,46.9c0-0.4,0.3-0.7,0.7-0.7h4c0.4,0,0.7,0.3,0.7,0.7c0,0.4-0.3,0.7-0.7,0.7h-4
	C175.9,47.5,175.6,47.3,175.6,46.9z M183.6,46.9c0-0.4,0.3-0.7,0.7-0.7h4c0.4,0,0.7,0.3,0.7,0.7c0,0.4-0.3,0.7-0.7,0.7h-4
	C183.9,47.5,183.6,47.3,183.6,46.9z M191.5,46.9c0-0.4,0.3-0.7,0.7-0.7h4c0.4,0,0.7,0.3,0.7,0.7c0,0.4-0.3,0.7-0.7,0.7h-4
	C191.8,47.5,191.5,47.3,191.5,46.9z M199.4,46.9c0-0.4,0.3-0.7,0.7-0.7h4c0.4,0,0.7,0.3,0.7,0.7c0,0.4-0.3,0.7-0.7,0.7h-4
	C199.7,47.5,199.4,47.3,199.4,46.9z M207.3,46.9c0-0.4,0.3-0.7,0.7-0.7h4c0.4,0,0.7,0.3,0.7,0.7c0,0.4-0.3,0.7-0.7,0.7h-4
	C207.6,47.5,207.3,47.3,207.3,46.9z M215.3,46.9c0-0.4,0.3-0.7,0.7-0.7h4c0.4,0,0.7,0.3,0.7,0.7c0,0.4-0.3,0.7-0.7,0.7h-4
	C215.6,47.5,215.3,47.3,215.3,46.9z M223.2,46.9c0-0.4,0.3-0.7,0.7-0.7h4c0.4,0,0.7,0.3,0.7,0.7c0,0.4-0.3,0.7-0.7,0.7h-4
	C223.5,47.5,223.2,47.3,223.2,46.9z M231.1,46.9c0-0.4,0.3-0.7,0.7-0.7h4c0.4,0,0.7,0.3,0.7,0.7c0,0.4-0.3,0.7-0.7,0.7h-4
	C231.4,47.5,231.1,47.3,231.1,46.9z M239,46.9c0-0.4,0.3-0.7,0.7-0.7h4c0.4,0,0.7,0.3,0.7,0.7c0,0.4-0.3,0.7-0.7,0.7h-4
	C239.3,47.5,239,47.3,239,46.9z M246.9,46.9c0-0.4,0.3-0.7,0.7-0.7h4c0.4,0,0.7,0.3,0.7,0.7c0,0.4-0.3,0.7-0.7,0.7h-4
	C247.2,47.5,246.9,47.3,246.9,46.9z M254.9,46.9c0-0.4,0.3-0.7,0.7-0.7h4c0.4,0,0.7,0.3,0.7,0.7c0,0.4-0.3,0.7-0.7,0.7h-4
	C255.2,47.5,254.9,47.3,254.9,46.9z M262.8,46.9c0-0.4,0.3-0.7,0.7-0.7h4c0.4,0,0.7,0.3,0.7,0.7c0,0.4-0.3,0.7-0.7,0.7h-4
	C263.1,47.5,262.8,47.3,262.8,46.9z M270.7,46.9c0-0.4,0.3-0.7,0.7-0.7h4c0.4,0,0.7,0.3,0.7,0.7c0,0.4-0.3,0.7-0.7,0.7h-4
	C271,47.5,270.7,47.3,270.7,46.9z M278.6,46.9c0-0.4,0.3-0.7,0.7-0.7h4c0.4,0,0.7,0.3,0.7,0.7c0,0.4-0.3,0.7-0.7,0.7h-4
	C278.9,47.5,278.6,47.3,278.6,46.9z M286.6,46.9c0-0.4,0.3-0.7,0.7-0.7h4c0.4,0,0.7,0.3,0.7,0.7c0,0.4-0.3,0.7-0.7,0.7h-4
	C286.9,47.5,286.6,47.3,286.6,46.9z M294.5,46.9c0-0.4,0.3-0.7,0.7-0.7h4c0.4,0,0.7,0.3,0.7,0.7c0,0.4-0.3,0.7-0.7,0.7h-4
	C294.8,47.5,294.5,47.3,294.5,46.9z M302.4,46.9c0-0.4,0.3-0.7,0.7-0.7h4c0.4,0,0.7,0.3,0.7,0.7c0,0.4-0.3,0.7-0.7,0.7h-4
	C302.7,47.5,302.4,47.3,302.4,46.9z M310.3,46.9c0-0.4,0.3-0.7,0.7-0.7h4c0.4,0,0.7,0.3,0.7,0.7c0,0.4-0.3,0.7-0.7,0.7h-4
	C310.6,47.5,310.3,47.3,310.3,46.9z M318.2,46.9c0-0.4,0.3-0.7,0.7-0.7h4c0.4,0,0.7,0.3,0.7,0.7c0,0.4-0.3,0.7-0.7,0.7h-4
	C318.5,47.5,318.2,47.3,318.2,46.9z M326.2,46.9c0-0.4,0.3-0.7,0.7-0.7h4c0.4,0,0.7,0.3,0.7,0.7c0,0.4-0.3,0.7-0.7,0.7h-4
	C326.5,47.5,326.2,47.3,326.2,46.9z M334.1,46.9c0-0.4,0.3-0.7,0.7-0.7h4c0.4,0,0.7,0.3,0.7,0.7c0,0.4-0.3,0.7-0.7,0.7h-4
	C334.4,47.5,334.1,47.3,334.1,46.9z M342,46.9c0-0.4,0.3-0.7,0.7-0.7h2c0.4,0,0.7,0.3,0.7,0.7c0,0.4-0.3,0.7-0.7,0.7h-2
	C342.3,47.5,342,47.3,342,46.9z"/>
<linearGradient id="SVGID_7_" gradientUnits="userSpaceOnUse" x1="52.8542" y1="142.2222" x2="340.7304" y2="198.7454" gradientTransform="matrix(1 0 0 -1 0 244)">
	<stop  offset="0" style="stop-color:#00CC66"/>
	<stop  offset="1" style="stop-color:#00CC66;stop-opacity:0.45"/>
</linearGradient>
<path class="st10" d="M345.3,66.6c-76.5-0.2-232.6-0.5-245.7,0c-1.1,0-2.6,0.6-4.4,1.8c-1.8,1.2-3.8,2.9-5.9,5.1
	c-4.3,4.4-8.9,10.4-13.5,17.2c-9.2,13.6-18.2,29.8-23.7,40.6c-0.5,1-1.7,1.4-2.6,0.9s-1.4-1.7-0.9-2.6c5.5-10.9,14.6-27.3,24-41
	c4.7-6.9,9.5-13.1,14-17.8c2.2-2.3,4.5-4.2,6.6-5.6c2.1-1.4,4.3-2.3,6.4-2.4c13.2-0.5,169.5-0.2,245.9,0c1.1,0,2,0.9,2,2
	C347.3,65.7,346.4,66.6,345.3,66.6z"/>
<path class="st11" d="M99.5,147.4V64.6h1.3v82.8H99.5z"/>
<g>
	<circle class="st12" cx="100.2" cy="64" r="4.6"/>
	<circle class="st13" cx="100.2" cy="64" r="3.3"/>
</g>
<path class="st14" d="M92.9,52.1l4.6,5.3l4.6-5.3h25.6c1.4,0,2.6-1.2,2.6-2.6V29.1c0-1.4-1.2-2.6-2.6-2.6H69.9
	c-1.4,0-2.6,1.2-2.6,2.6v20.4c0,1.4,1.2,2.6,2.6,2.6H92.9z"/>
<path class="st15" d="M81,42.4h1.1v-1.2h1l0-1h-1v-3.3h-2.2l-2.1,3.4v0.9H81V42.4z M81,38v2.2h-1.9l1.4-2.2H81z M86.2,37.6
	c0.5,0,0.7-0.3,0.7-0.7v0c0-0.4-0.3-0.7-0.7-0.7c-0.5,0-0.7,0.3-0.7,0.7v0C85.5,37.3,85.7,37.6,86.2,37.6z M85.6,42.4h1.2v-4.2h-1.2
	V42.4z M87.8,42.4h1.2v-2.9c0.3-0.3,0.7-0.5,1.1-0.5c0.4,0,0.7,0.2,0.7,0.8v2.6h1.2v-2.8c0-1.1-0.6-1.6-1.5-1.6
	c-0.7,0-1.1,0.3-1.5,0.7v-0.6h-1.1V42.4z M95,42.5c0.6,0,1.1-0.2,1.5-0.4V41h0c-0.4,0.3-0.9,0.5-1.4,0.5c-0.7,0-1.3-0.5-1.3-1.2
	c0-0.7,0.5-1.3,1.3-1.3c0.5,0,0.9,0.2,1.4,0.5h0v-1.1C96.1,38.2,95.6,38,95,38c-1.4,0-2.4,1-2.4,2.3C92.6,41.7,93.6,42.5,95,42.5z
	 M97.8,37.6c0.5,0,0.7-0.3,0.7-0.7v0c0-0.4-0.3-0.7-0.7-0.7c-0.5,0-0.7,0.3-0.7,0.7v0C97.1,37.3,97.4,37.6,97.8,37.6z M97.2,42.4
	h1.2v-4.2h-1.2V42.4z M103.6,36.5h-1.2v1.8c-0.3-0.1-0.6-0.2-1-0.2c-1.3,0-2.3,1-2.3,2.3c0,1.4,0.9,2.2,1.9,2.2
	c0.6,0,1.1-0.3,1.4-0.6l0,0.5h1.1V36.5z M101.6,39c0.3,0,0.6,0.1,0.9,0.3v1.9c-0.2,0.2-0.6,0.4-1,0.4c-0.7,0-1.2-0.4-1.2-1.2
	C100.3,39.5,100.8,39,101.6,39z M106.6,38c-1.4,0-2.3,1-2.3,2.3c0,1.2,0.8,2.2,2.4,2.2c0.7,0,1.3-0.2,1.7-0.4v-1h0
	c-0.5,0.3-1,0.5-1.6,0.5c-0.7,0-1.2-0.3-1.3-0.9h3.2c0-0.1,0-0.3,0-0.4C108.7,39,108,38,106.6,38z M106.6,39c0.6,0,1,0.3,1,0.9h-2.1
	C105.7,39.3,106,39,106.6,39z M109.4,42.4h1.2v-2.9c0.3-0.3,0.7-0.5,1.1-0.5c0.4,0,0.7,0.2,0.7,0.8v2.6h1.2v-2.8
	c0-1.1-0.6-1.6-1.5-1.6c-0.7,0-1.1,0.3-1.5,0.7v-0.6h-1.1V42.4z M115,42.4h1.1v-3.3h1v-0.9h-1v-1.1l-1.1,0.1v0.9h-0.8l-0.2,0.9h0.9
	V42.4z M119.3,42.5c1.5,0,1.8-0.8,1.8-1.4c0-0.7-0.4-1.1-1.5-1.3c-0.9-0.2-1.1-0.3-1.1-0.5c0-0.2,0.1-0.3,0.6-0.3
	c0.5,0,1.2,0.2,1.7,0.5h0v-1c-0.3-0.2-1-0.4-1.6-0.4c-1.2,0-1.8,0.6-1.8,1.4c0,0.7,0.5,1.1,1.5,1.3c0.9,0.2,1.1,0.3,1.1,0.5
	c0,0.2-0.2,0.4-0.6,0.4c-0.7,0-1.3-0.2-1.9-0.6h0v1C118.1,42.4,118.7,42.5,119.3,42.5z"/>
<g>
	<path class="st16" d="M201.3,85H399c3,0,5.3,2.4,5.3,5.3v111.1c0,3-2.4,5.3-5.3,5.3H201.3c-3,0-5.3-2.4-5.3-5.3V90.3
		C195.9,87.4,198.3,85,201.3,85z"/>
</g>
<path class="st17" d="M224.4,129.9c0,0.5,0.3,0.9,1,0.9c0.7,0,1.1-0.5,1.1-1c0-0.5-0.3-0.9-1-0.9
	C224.8,128.9,224.4,129.4,224.4,129.9z M224.3,131.6l-1.3,6.2h1.7l1.3-6.2H224.3z M231,131.5c-0.7,0-1.3,0.3-1.7,0.8l0.1-0.6h-1.6
	l-1.8,8.5h1.7l0.5-2.5c0.4,0.2,0.9,0.4,1.5,0.4c2,0,3.5-1.8,3.5-4C233.2,132.3,232.2,131.5,231,131.5z M230.4,132.8
	c0.7,0,1.2,0.3,1.2,1.3c0,1.3-0.7,2.4-2,2.4c-0.5,0-0.9-0.2-1.1-0.4l0.6-2.9C229.4,133,229.9,132.8,230.4,132.8z M234.2,136.9
	c0,0.6,0.4,1,1.1,1c0.9,0,1.4-0.6,1.4-1.2c0-0.6-0.4-1-1.1-1C234.8,135.7,234.2,136.2,234.2,136.9z M238.6,137.8h1.6l1-4.8h1.3
	l0.3-1.4h-1.4l0.3-1.6l-1.7,0.2l-0.3,1.4h-1.1l-0.6,1.4h1.3L238.6,137.8z M244.6,135.1c0-1.3,0.8-2.3,2-2.3c0.7,0,1.2,0.3,1.6,0.6h0
	l0.3-1.5c-0.4-0.3-1.1-0.6-2-0.6c-2.2,0-3.6,1.8-3.6,3.8c0,1.8,1.2,2.8,2.9,2.8c0.6,0,1.1-0.1,1.7-0.4l0.3-1.5h0
	c-0.5,0.3-1.1,0.5-1.6,0.5C245.3,136.6,244.6,136.1,244.6,135.1z M253.5,131.5c-0.7,0-1.3,0.3-1.7,0.8l0.1-0.6h-1.6l-1.8,8.5h1.7
	l0.5-2.5c0.4,0.2,0.9,0.4,1.5,0.4c2,0,3.5-1.8,3.5-4C255.7,132.3,254.7,131.5,253.5,131.5z M252.9,132.8c0.7,0,1.2,0.3,1.2,1.3
	c0,1.3-0.7,2.4-2,2.4c-0.5,0-0.9-0.2-1.1-0.4l0.6-2.9C252,133,252.4,132.8,252.9,132.8z"/>
<path class="st17" d="M224.1,156.1c0,0.5,0.3,0.8,1,0.8c0.7,0,1.1-0.5,1.1-1c0-0.5-0.3-0.9-1-0.9C224.5,155,224.1,155.5,224.1,156.1
	z M224,157.7l-1.3,6.2h1.7l1.3-6.2H224z M230.7,157.6c-0.7,0-1.3,0.3-1.7,0.8l0.1-0.6h-1.6l-1.8,8.5h1.7l0.5-2.5
	c0.4,0.2,0.9,0.4,1.5,0.4c2,0,3.5-1.8,3.5-4C232.9,158.4,231.9,157.6,230.7,157.6z M230,159c0.7,0,1.2,0.3,1.2,1.3
	c0,1.3-0.7,2.4-2,2.4c-0.5,0-0.9-0.2-1.1-0.4l0.6-2.9C229.1,159.2,229.6,159,230,159z M233.9,163c0,0.6,0.4,1,1.1,1
	c0.9,0,1.4-0.6,1.4-1.2c0-0.6-0.4-1-1.1-1C234.4,161.8,233.9,162.4,233.9,163z M240.8,162.7c-0.5,0-0.9-0.2-0.9-0.7
	c0-0.1,0-0.3,0.1-0.7l0.8-3.6h-1.7l-0.8,3.6c-0.1,0.6-0.2,0.9-0.2,1.1c0,1.2,0.9,1.7,1.8,1.7c0.8,0,1.6-0.5,2-1l-0.2,0.8h1.6
	l1.3-6.2h-1.7l-0.9,4.4C241.8,162.4,241.3,162.7,240.8,162.7z M247.7,164.1c0.7,0,1.3-0.3,1.7-0.8l-0.1,0.6h1.6l1.8-8.7h-1.7
	l-0.6,2.7c-0.4-0.2-0.9-0.4-1.5-0.4c-2,0-3.5,1.8-3.5,4C245.5,163.3,246.5,164.1,247.7,164.1z M248.4,162.7c-0.7,0-1.2-0.3-1.2-1.3
	c0-1.3,0.7-2.4,2-2.4c0.5,0,0.8,0.2,1.1,0.4l-0.6,2.9C249.3,162.5,248.8,162.7,248.4,162.7z M257.3,157.6c-0.7,0-1.3,0.3-1.7,0.8
	l0.1-0.6h-1.6l-1.8,8.5h1.7l0.5-2.5c0.4,0.2,0.9,0.4,1.5,0.4c2,0,3.5-1.8,3.5-4C259.5,158.4,258.5,157.6,257.3,157.6z M256.7,159
	c0.7,0,1.2,0.3,1.2,1.3c0,1.3-0.7,2.4-2,2.4c-0.5,0-0.8-0.2-1.1-0.4l0.6-2.9C255.7,159.2,256.2,159,256.7,159z"/>
<path class="st13" d="M223.9,142.5h99.3c1,0,1.9,0.8,1.9,1.9l0,0c0,1-0.8,1.9-1.9,1.9h-99.3c-1,0-1.9-0.8-1.9-1.9l0,0
	C222.1,143.3,222.9,142.5,223.9,142.5z"/>
<path class="st8" d="M223.9,168.6H333c1,0,1.9,0.8,1.9,1.9l0,0c0,1-0.8,1.9-1.9,1.9H223.9c-1,0-1.9-0.8-1.9-1.9l0,0
	C222.1,169.5,222.9,168.6,223.9,168.6z"/>
<path class="st13" d="M223.9,168.6h20.4c1,0,1.9,0.8,1.9,1.9l0,0c0,1-0.8,1.9-1.9,1.9h-20.4c-1,0-1.9-0.8-1.9-1.9l0,0
	C222.1,169.5,222.9,168.6,223.9,168.6z"/>
<path class="st15" d="M332.1,148h1.5v-7.3H331l-0.2,1.3h1.4V148z M335.8,149.4h0.8l1.7-3.2v-0.2h-2.1L335.8,149.4z M342.6,148.2
	c2,0,3.1-1.2,3.1-2.5c0-0.6-0.1-1-0.5-1.4c-0.6-0.6-1.6-0.9-3.5-0.9h-0.3l0-1.4h3.7l-0.1-1.4h-5.1l-0.1,4.1h1.2
	c1.9,0,2.4,0.1,2.6,0.4c0.1,0.1,0.2,0.3,0.2,0.5c0,0.4-0.4,1-1.5,1c-0.7,0-1.7-0.2-2.7-0.6h0v1.5C340.8,148,341.9,148.2,342.6,148.2
	z M349.9,140.6c-1.7,0-3.1,1.1-3.1,2.7c0,1.5,1.2,2.2,2.7,2.2c0.7,0,1.5-0.2,2.1-0.7c-0.1,1.4-1.1,2-2.2,2c-0.8,0-1.3-0.2-2.2-0.6h0
	v1.4c0.8,0.3,1.6,0.5,2.2,0.5c2,0,3.7-1.3,3.7-4C353.1,141.7,351.8,140.6,349.9,140.6z M348.3,143.2c0-0.9,0.7-1.3,1.5-1.3
	c0.9,0,1.7,0.4,1.8,1.8c-0.6,0.4-1.2,0.6-1.8,0.6C349.1,144.2,348.3,144,348.3,143.2z M357.5,148.2c1.7,0,3.1-1.1,3.1-2.7
	c0-1.5-1.2-2.2-2.7-2.2c-0.7,0-1.5,0.2-2.1,0.7c0.1-1.4,1.1-2,2.2-2c0.8,0,1.3,0.2,2.2,0.6h0V141c-0.8-0.3-1.6-0.5-2.2-0.5
	c-2,0-3.7,1.3-3.7,4C354.2,147,355.5,148.2,357.5,148.2z M357.5,144.5c0.7,0,1.5,0.2,1.5,1.1c0,0.9-0.7,1.3-1.5,1.3
	c-0.9,0-1.7-0.4-1.8-1.8C356.4,144.7,356.9,144.5,357.5,144.5z"/>
<path class="st15" d="M344.6,174.3c1.7,0,3.2-0.9,3.2-2.4c0-1.2-1-1.8-2.5-2l2.2-1.8v-1.2h-5.6l-0.1,1.4h3.5l-2.2,1.9v0.8h0.4
	c1.7,0,2.6,0.2,2.6,1c0,0.7-0.7,1-1.6,1c-0.6,0-1.8-0.2-2.7-0.7h0v1.5C342.6,174.1,343.5,174.3,344.6,174.3z M350.2,174.1h1.5v-7.3
	h-2.7l-0.2,1.3h1.4V174.1z M357.8,174.1h1.5v-1.6h1.3l0.1-1.3h-1.3v-4.4h-2.9l-2.8,4.5v1.2h4.2V174.1z M357.8,168.2v3h-2.5l1.8-3
	H357.8z"/>
<path class="st18" d="M360.3,113.3h-10.5v-1.5h10.5c6.2,0,11.2,5,11.2,11.2v55c0,6.2-5,11.2-11.2,11.2h-10.5v-1.5h10.5
	c5.3,0,9.7-4.3,9.7-9.7v-55C370,117.7,365.7,113.3,360.3,113.3z"/>
<path class="st18" d="M341.6,106.6h-12v10.5h12V106.6z M329.6,105.1c-0.8,0-1.5,0.7-1.5,1.5v10.5c0,0.8,0.7,1.5,1.5,1.5h12
	c0.8,0,1.5-0.7,1.5-1.5v-10.5c0-0.8-0.7-1.5-1.5-1.5H329.6z"/>
<g class="st20">
	<rect x="378.5" y="51.1" class="st19" width="58.9" height="58.9"/>
	<rect x="382.7" y="55.3" class="st17" width="51.3" height="51.3"/>
	<path class="st11" d="M422.8,60.1h6.4v41.7h-41.7V60.1h6.4V81h28.9V60.1z M382.7,106.6V55.3H434v51.3H382.7z M410.7,61.7h-4v10.4h4
		V61.7z M402.7,61.7h-4v10.4h4V61.7z M414.8,61.7h4v10.4h-4V61.7z M419.6,81h-22.4v4.8h4v4.8h14.4v-4.8h4V81z"/>
</g>
</svg>
