<?xml version="1.0" encoding="utf-8"?>
<!-- Generator: Adobe Illustrator 25.2.3, SVG Export Plug-In . SVG Version: 6.00 Build 0)  -->
<svg version="1.1" id="Layer_1" xmlns="http://www.w3.org/2000/svg" xmlns:xlink="http://www.w3.org/1999/xlink" x="0px" y="0px"
	 viewBox="0 0 420 244" style="enable-background:new 0 0 420 244;" xml:space="preserve">
<style type="text/css">
	.st0{clip-path:url(#SVGID_2_);}
	.st1{fill:none;stroke:url(#SVGID_3_);stroke-width:20;stroke-linecap:round;}
	.st2{fill:none;stroke:url(#SVGID_4_);stroke-width:20;stroke-linecap:round;}
	.st3{fill:none;stroke:url(#SVGID_5_);stroke-width:20;stroke-linecap:round;}
	.st4{fill:none;stroke:#C74727;stroke-width:20;stroke-linecap:round;}
	.st5{fill:none;stroke:url(#SVGID_6_);stroke-width:20;stroke-linecap:round;}
	.st6{fill:none;stroke:url(#SVGID_7_);stroke-width:20;stroke-linecap:round;}
	.st7{fill:none;stroke:url(#SVGID_8_);stroke-width:20;stroke-linecap:round;}
	.st8{fill:none;stroke:url(#SVGID_9_);stroke-width:20;stroke-linecap:round;}
	.st9{fill:#C4C4C4;}
	.st10{fill:url(#SVGID_10_);}
	.st11{fill:#141414;fill-opacity:0.9;enable-background:new;}
	.st12{fill:#C4492E;}
	.st13{fill:url(#SVGID_11_);}
	.st14{fill:#FCFCFC;}
	.st15{opacity:0.99;fill:#FFFFFF;enable-background:new;}
	.st16{fill:#FFFFFF;fill-opacity:0.85;filter:url(#dropShadow_lg);}
	.st17{fill:#FFFFFF;}
	.st18{fill:#141414;}
	.st19{fill:#949494;}
	.st20{fill:none;stroke:#B9B9B9;stroke-width:0.9178;}
	.st21{fill:none;stroke:url(#SVGID_12_);stroke-width:4.4553;}
	.st22{opacity:0.97;filter:url(#dropShadow_xl);}
	.st23{fill:#E7E7E7;}
	.st24{fill:none;stroke:#000000;stroke-width:4.4553;stroke-linecap:round;stroke-linejoin:round;}
	.st25{filter:url(#dropShadow);}
</style>
<defs>
	<filter id="dropShadow" height="130%">
		<feGaussianBlur in="SourceAlpha" stdDeviation="3"/> <!-- stdDeviation is how much to blur -->
		<feOffset dx="0" dy="3" result="offsetblur"/> <!-- how much to offset -->
		<feComponentTransfer>
		<feFuncA type="linear" slope="0.25"/> <!-- slope is the opacity of the shadow -->
		</feComponentTransfer>
		<feMerge> 
			<feMergeNode/> <!-- this contains the offset blurred image -->
			<feMergeNode in="SourceGraphic"/> <!-- this contains the element that the filter is applied to -->
		</feMerge>
	</filter>
	<filter id="dropShadow_lg" height="200%">
		<feGaussianBlur in="SourceAlpha" stdDeviation="6"/> <!-- stdDeviation is how much to blur -->
		<feOffset dx="0" dy="6" result="offsetblur"/> <!-- how much to offset -->
		<feComponentTransfer>
		<feFuncA type="linear" slope="0.2"/> <!-- slope is the opacity of the shadow -->
		</feComponentTransfer>
		<feMerge> 
			<feMergeNode/> <!-- this contains the offset blurred image -->
			<feMergeNode in="SourceGraphic"/> <!-- this contains the element that the filter is applied to -->
		</feMerge>
	</filter>
	<filter id="dropShadow_xl" height="200%">
		<feGaussianBlur in="SourceAlpha" stdDeviation="8"/> <!-- stdDeviation is how much to blur -->
		<feOffset dx="0" dy="8" result="offsetblur"/> <!-- how much to offset -->
		<feComponentTransfer>
		<feFuncA type="linear" slope="0.25"/> <!-- slope is the opacity of the shadow -->
		</feComponentTransfer>
		<feMerge> 
			<feMergeNode/> <!-- this contains the offset blurred image -->
			<feMergeNode in="SourceGraphic"/> <!-- this contains the element that the filter is applied to -->
		</feMerge>
	</filter>
</defs>
<g>
	<defs>
		<rect id="SVGID_1_" width="420" height="244"/>
	</defs>
	<clipPath id="SVGID_2_">
		<use xlink:href="#SVGID_1_"  style="overflow:visible;"/>
	</clipPath>
	<g class="st0">
		
			<linearGradient id="SVGID_3_" gradientUnits="userSpaceOnUse" x1="145.1716" y1="95.0956" x2="397.6716" y2="146.5957" gradientTransform="matrix(1 0 0 -1 0 246)">
			<stop  offset="0" style="stop-color:#F9F9F9"/>
			<stop  offset="0.8429" style="stop-color:#E07A61"/>
			<stop  offset="1" style="stop-color:#C74626"/>
		</linearGradient>
		<path class="st1" d="M397.5,71.1c-25.3,26-80,76-142,85.5c-51.5,7.9-92.5-7.5-117.5-30"/>
		
			<linearGradient id="SVGID_4_" gradientUnits="userSpaceOnUse" x1="246.8607" y1="127.7094" x2="355.3607" y2="198.7094" gradientTransform="matrix(1 0 0 -1 0 246)">
			<stop  offset="0" style="stop-color:#E09B8B;stop-opacity:0"/>
			<stop  offset="0.2103" style="stop-color:#A33216;stop-opacity:0"/>
			<stop  offset="0.4177" style="stop-color:#A33216"/>
			<stop  offset="1" style="stop-color:#C74626;stop-opacity:0"/>
		</linearGradient>
		<path class="st2" d="M397.5,71.1c-25.3,26-80,76-142,85.5c-51.5,7.9-92.5-7.5-117.5-30"/>
		
			<linearGradient id="SVGID_5_" gradientUnits="userSpaceOnUse" x1="176.8967" y1="186.4876" x2="238.3967" y2="157.9876" gradientTransform="matrix(1 0 0 -1 0 246)">
			<stop  offset="0" style="stop-color:#E09B8B;stop-opacity:0"/>
			<stop  offset="0.1714" style="stop-color:#A33216;stop-opacity:0"/>
			<stop  offset="0.5788" style="stop-color:#A33216"/>
			<stop  offset="1" style="stop-color:#C74626;stop-opacity:0"/>
		</linearGradient>
		<path class="st3" d="M397.5,71.1c-25.3,26-80,76-142,85.5c-51.5,7.9-92.5-7.5-117.5-30"/>
		<path class="st4" d="M359,106.1c-12.9,10.2-27.5,20.5-43.5,29.2"/>
		<path class="st4" d="M173.5,148.4c10.4,4.2,22,7.3,34.5,8.9c3.4,0.4,6.9,0.8,10.5,1"/>
		
			<linearGradient id="SVGID_6_" gradientUnits="userSpaceOnUse" x1="14.1608" y1="99.2634" x2="186.2228" y2="103.4774" gradientTransform="matrix(1 0 0 -1 0 246)">
			<stop  offset="0" style="stop-color:#F9F9F9"/>
			<stop  offset="1" style="stop-color:#C74626"/>
		</linearGradient>
		<path class="st5" d="M21,181.1c12.3,0,47.3-3.5,64.5-11.5c40.5-18.8,81-54,97-61.5"/>
		
			<linearGradient id="SVGID_7_" gradientUnits="userSpaceOnUse" x1="204.3966" y1="151.366" x2="317.7766" y2="159.9465" gradientTransform="matrix(1 0 0 -1 0 246)">
			<stop  offset="0" style="stop-color:#F9F9F9"/>
			<stop  offset="1" style="stop-color:#C74626"/>
		</linearGradient>
		<path class="st6" d="M204.5,95.6c15.5-8.7,60.7-21.3,117.5-2.5"/>
		
			<linearGradient id="SVGID_8_" gradientUnits="userSpaceOnUse" x1="44.2379" y1="187.9743" x2="134.2379" y2="125.9743" gradientTransform="matrix(1 0 0 -1 0 246)">
			<stop  offset="0" style="stop-color:#F9F9F9"/>
			<stop  offset="0.7457" style="stop-color:#EFA28F"/>
			<stop  offset="1" style="stop-color:#C74626"/>
		</linearGradient>
		<path class="st7" d="M42,62.1c4.8-0.3,16.3,0.2,23.5,5c7.2,4.8,43,35.7,60,50.5"/>
		
			<linearGradient id="SVGID_9_" gradientUnits="userSpaceOnUse" x1="40.6538" y1="188.8219" x2="131.1538" y2="130.8219" gradientTransform="matrix(1 0 0 -1 0 246)">
			<stop  offset="0" style="stop-color:#E09B8B;stop-opacity:0"/>
			<stop  offset="0.2303" style="stop-color:#A33216;stop-opacity:0"/>
			<stop  offset="0.5788" style="stop-color:#A33216"/>
			<stop  offset="1" style="stop-color:#C74626;stop-opacity:0"/>
		</linearGradient>
		<path class="st8" d="M42,62.1c4.8-0.3,16.3,0.2,23.5,5c7.2,4.8,43,35.7,60,50.5"/>
		<path class="st4" d="M103,98.1c-9.2-7.9-18.7-16-26-22"/>
		<g class="st25">
			<path class="st9" d="M189,95h152v74c0,3.3-2.7,6-6,6H195c-3.3,0-6-2.7-6-6V95z"/>
			
				<linearGradient id="SVGID_10_" gradientUnits="userSpaceOnUse" x1="264.942" y1="231" x2="264.942" y2="138.826" gradientTransform="matrix(1 0 0 -1 0 246)">
				<stop  offset="0" style="stop-color:#FFFFFF"/>
				<stop  offset="0.333" style="stop-color:#FFFFFF"/>
				<stop  offset="1" style="stop-color:#C1C1C1"/>
			</linearGradient>
			<path class="st10" d="M258.5,22.9c4.1-4.3,11.1-4.3,15.1,0.1l67.3,72H189L258.5,22.9z"/>
			<path class="st11" d="M206.4,48h118.3c3.2,0,5.8,2.6,5.8,5.8v92.8c0,3.2-2.6,5.8-5.8,5.8H206.4c-3.2,0-5.8-2.6-5.8-5.8V53.8
				C200.6,50.6,203.2,48,206.4,48z"/>
			<path class="st12" d="M246.6,129.9c-1,0-2.1-0.2-3.1-0.3c-2-0.3-2.1-1.5-2.1-2c0-1,1-1.8,2-1.8c2.1-0.2,3.9-0.8,5.8-1.8
				c2-1.2,3.6-2.6,4.9-4.6c4.4-6.7,2.6-15.6-4.1-20.1c-6.7-4.4-15.6-2.6-20.1,4.1c-0.5,0.7-1.6,1.2-2.5,0.8c-0.5-0.3-1.3-1-0.7-3
				c1.6-4.6,4.9-8.4,9.2-10.7c3.1-1.8,6.6-2.8,10-2.8c-1.6-3.1-2.6-6.6-2.6-10.2c-0.2-4.9,1.5-9.5,4.8-13.3c1.5-1.5,2.5-1.2,3-0.8
				c0.8,0.5,1,1.8,0.7,2.6c-2,3.9-2,8.4-0.2,12.5c1.6,3.5,4.4,6.3,8.1,7.6c3.6,1.3,7.6,1.3,11-0.3c3.5-1.6,6.3-4.4,7.6-8.1
				c1.3-3.6,1.3-7.6-0.3-11c-0.3-0.8-0.2-2.1,0.7-2.6c0.3-0.2,1.3-0.7,2.6,0.8c3,3.6,4.6,8.2,4.4,13c0,3.6-1,7.1-2.6,10.2
				c3.6,0,7.1,1,10.2,2.8c4.3,2.3,7.6,6.1,9.2,10.7c0.7,2-0.2,2.6-0.7,3c-0.8,0.5-2.1,0-2.5-0.8c-1.2-1.8-2.8-3.3-4.8-4.4
				c-6.9-3.9-15.8-1.6-19.9,5.3c-3.9,6.9-1.6,15.8,5.3,19.9c1.8,1,3.8,1.6,5.8,1.8c0.8,0.2,2,0.8,2,1.8c0,0.5-0.2,1.5-2,2
				c-5.1,0.3-9.9-0.5-13.8-3c-3.1-1.8-5.6-4.3-7.4-7.4c-1.8,3-4.4,5.6-7.6,7.4C253.7,128.9,250.2,129.9,246.6,129.9z M243,127.9
				c0,0,0.2,0.2,0.7,0.2c4.3,0.7,8.6-0.2,12.2-2.5c3.3-1.8,5.9-4.6,7.6-8.1l0.7-1.5l0.7,1.5c1.6,3.3,4.3,6.1,7.6,8.1
				c3.6,2.3,8.1,3.1,12.3,2.5c0.5-0.2,0.7-0.3,0.7-0.3s-0.3-0.2-0.5-0.2c-2.3-0.2-4.4-1-6.4-2.1c-3.8-2.1-6.4-5.6-7.6-9.9
				c-1.2-4.1-0.5-8.6,1.6-12.2c4.4-7.7,14.3-10.4,22-5.9c2.1,1.2,3.9,3,5.3,4.9c0,0.2,0.3,0.2,0.5,0.2c0,0,0-0.3-0.2-1
				c-1.5-4.3-4.4-7.7-8.4-9.9c-3.3-2-7.1-2.8-10.7-2.6l-1.6,0.2l0.8-1.3c2.1-3.1,3.1-6.7,3.1-10.5c0.2-4.3-1.3-8.6-3.9-11.8
				c-0.3-0.5-0.7-0.5-0.7-0.5s0,0.3,0,0.5c3.6,8.1,0,17.8-8.1,21.4c-3.9,1.8-8.4,2-12.3,0.3c-4.1-1.5-7.2-4.4-9-8.4
				c-2-4.4-2-9.5,0.2-13.8c0-0.2,0-0.5,0-0.5s-0.3,0.2-0.8,0.7c-3,3.3-4.4,7.7-4.3,12.2c0,3.8,1.2,7.4,3.1,10.5l0.8,1.3l-1.6-0.2
				c-3.8-0.2-7.4,0.7-10.7,2.6c-3.9,2.1-6.9,5.6-8.4,9.9c0.5,1,0.5,1.2,0.5,1.2s0.3-0.2,0.5-0.3c4.9-7.4,15-9.5,22.4-4.6
				c7.4,4.9,9.5,15,4.6,22.4c-1.3,2.1-3.3,3.9-5.4,5.1c-2,1.2-4.1,1.8-6.4,2.1C243.3,127.6,243.1,127.8,243,127.9z"/>
			<path class="st12" d="M256.5,85.1c-0.3,0-0.5-0.2-0.7-0.3c-0.3-0.3-0.2-0.8,0.2-1.2c0.5-0.3,1-0.7,1.5-1c0.3-0.2,0.8,0,1.2,0.3
				c0.3,0.3,0,0.8-0.3,1.2c-0.5,0.2-0.8,0.5-1.3,0.8C256.8,85.1,256.6,85.1,256.5,85.1z M270.6,84.1c-0.2,0-0.3,0-0.3-0.2
				c-0.5-0.2-1-0.5-1.5-0.7c-0.5-0.2-0.7-0.7-0.5-1c0.2-0.5,0.7-0.7,1-0.5c0.5,0.2,1.2,0.5,1.6,0.7c0.3,0.2,0.5,0.7,0.3,1.2
				C271.1,84,271,84.1,270.6,84.1z M262.6,82.8c-0.3,0-0.8-0.3-0.8-0.7c0-0.5,0.3-0.8,0.7-1c0.7,0,1.2-0.2,1.8-0.2
				c0.5,0,0.8,0.3,0.8,0.8s-0.3,0.8-0.8,0.8C263.7,82.7,263.2,82.8,262.6,82.8C262.7,82.8,262.6,82.8,262.6,82.8z"/>
			<path class="st12" d="M275.2,82.5c-0.2,0-0.3,0-0.5-0.2c-0.5-0.3-0.8-0.7-1.3-1c-0.3-0.2-0.5-0.8-0.3-1.2
				c0.2-0.3,0.8-0.5,1.2-0.3c0.5,0.3,1,0.7,1.5,1c0.3,0.3,0.5,0.8,0.2,1.2C275.7,82.3,275.4,82.5,275.2,82.5z M255.2,81.4
				c-0.3,0-0.5-0.2-0.7-0.3c-0.2-0.3-0.2-0.8,0.3-1.2c0.5-0.3,1-0.7,1.5-0.8c0.3-0.2,0.8,0,1.2,0.3c0.2,0.3,0,0.8-0.3,1.2
				c-0.5,0.2-1,0.5-1.3,0.8C255.5,81.4,255.3,81.4,255.2,81.4z M269.5,79.4h-0.2c-0.5-0.2-1-0.3-1.5-0.3c-0.5-0.2-0.7-0.5-0.7-1
				c0.2-0.5,0.5-0.7,1-0.7c0.5,0.2,1.2,0.3,1.6,0.3c0.5,0.2,0.7,0.7,0.5,1C270.1,79.2,269.8,79.4,269.5,79.4z M261.2,79
				c-0.3,0-0.7-0.3-0.8-0.7c0-0.5,0.2-0.8,0.7-1c0.5-0.2,1.2-0.2,1.6-0.2c0.5,0,0.8,0.3,0.8,0.8s-0.3,0.8-0.8,0.8
				C262.4,78.9,261.9,78.9,261.2,79C261.4,79,261.2,79,261.2,79z"/>
			<path class="st12" d="M274.1,112.1c-0.3,0-0.5-0.2-0.7-0.3c-0.2-0.3-0.2-0.8,0.3-1.2c0.5-0.3,0.8-0.7,1.3-1
				c0.3-0.3,0.8-0.2,1.2,0.2c0.3,0.3,0.2,0.8-0.2,1.2c-0.5,0.3-1,0.7-1.5,1C274.4,112.1,274.2,112.1,274.1,112.1z M278.7,107.5
				c-0.2,0-0.3,0-0.3-0.2c-0.3-0.2-0.5-0.7-0.3-1.2c0.3-0.5,0.5-1,0.7-1.3c0.2-0.5,0.7-0.7,1.2-0.5c0.5,0.2,0.7,0.7,0.5,1.2
				c-0.2,0.5-0.5,1-0.8,1.5C279.2,107.3,278.9,107.5,278.7,107.5z M280.5,101.3C280.3,101.3,280.3,101.3,280.5,101.3
				c-0.5,0-0.8-0.3-0.8-0.8c0-0.2,0-0.3,0-0.5c0-0.3,0-0.7,0-1.2s0.3-0.8,0.8-0.8c0.5,0,0.8,0.3,0.8,0.8c0,0.3,0,0.8,0,1.2
				c0,0.2,0,0.3,0,0.5C281.2,100.9,280.8,101.3,280.5,101.3z"/>
			<path class="st12" d="M273.3,117.1c-0.3,0-0.7-0.2-0.8-0.5c-0.2-0.5,0-0.8,0.5-1c0.5-0.2,1-0.5,1.5-0.7c0.3-0.2,0.8,0,1.2,0.3
				c0.3,0.3,0,0.8-0.3,1.2c-0.5,0.3-1,0.5-1.6,0.7C273.6,117.1,273.4,117.1,273.3,117.1z M278.9,113.6c-0.2,0-0.5-0.2-0.7-0.3
				c-0.3-0.3-0.3-0.8,0-1.2c0.3-0.3,0.8-0.7,1.2-1.2c0.3-0.3,0.8-0.3,1.2,0c0.3,0.3,0.3,0.8,0,1.2c-0.3,0.5-0.8,0.8-1.2,1.3
				C279.3,113.4,279,113.6,278.9,113.6z M282.6,108.3c-0.2,0-0.2,0-0.3,0c-0.3-0.2-0.7-0.7-0.3-1.2c0.2-0.5,0.5-1,0.7-1.5
				c0.2-0.5,0.7-0.7,1-0.5c0.5,0.2,0.7,0.7,0.5,1c-0.2,0.5-0.5,1.2-0.7,1.6C283.3,108.2,283,108.3,282.6,108.3z M284.3,101.9
				c-0.5,0-0.8-0.5-0.8-0.8c0-0.3,0-0.8,0-1.2v-0.5c0-0.5,0.3-0.8,0.8-0.8c0.5,0,0.8,0.3,0.8,0.8v0.5c0,0.5,0,0.8,0,1.3
				C285.1,101.6,284.8,101.9,284.3,101.9z"/>
			<path class="st12" d="M255.2,117.1c-0.2,0-0.2,0-0.3,0c-0.5-0.2-1-0.5-1.6-0.7c-0.3-0.2-0.5-0.7-0.3-1.2c0.2-0.5,0.7-0.5,1.2-0.3
				c0.5,0.2,1,0.5,1.5,0.7c0.5,0.2,0.7,0.7,0.5,1C255.8,116.9,255.5,117.1,255.2,117.1z M249.7,113.6c-0.2,0-0.3,0-0.5-0.2
				c-0.5-0.3-0.8-0.8-1.2-1.3c-0.3-0.3-0.3-0.8,0-1.2c0.3-0.3,0.8-0.3,1.2,0c0.3,0.3,0.7,0.8,1.2,1.2c0.3,0.3,0.3,0.8,0,1.2
				C250.2,113.4,249.9,113.6,249.7,113.6z M245.9,108.3c-0.3,0-0.7-0.2-0.8-0.5c-0.2-0.5-0.5-1-0.7-1.6c-0.2-0.5,0-0.8,0.5-1
				c0.5-0.2,0.8,0,1,0.5c0.2,0.5,0.3,1,0.7,1.5c0.2,0.3,0,0.8-0.3,1.2C246.1,108.3,245.9,108.3,245.9,108.3z M244.1,101.9
				c-0.5,0-0.8-0.3-0.8-0.8c0-0.5,0-0.8,0-1.3v-0.5c0-0.5,0.5-0.8,0.8-0.8c0.5,0,0.8,0.3,0.8,0.8v0.5c0,0.3,0,0.8,0,1.2
				C245.1,101.6,244.8,101.9,244.1,101.9C244.3,101.9,244.3,101.9,244.1,101.9z"/>
			<path class="st12" d="M254.5,112.1c-0.2,0-0.3,0-0.5-0.2c-0.5-0.3-1-0.7-1.5-1c-0.3-0.3-0.3-0.8-0.2-1.2c0.3-0.3,0.8-0.3,1.2-0.2
				c0.3,0.3,0.8,0.7,1.3,1c0.3,0.2,0.5,0.8,0.3,1.2C255,112.1,254.7,112.1,254.5,112.1z M249.9,107.5c-0.3,0-0.5-0.2-0.7-0.5
				c-0.3-0.5-0.5-1-0.8-1.5c-0.2-0.5,0-0.8,0.5-1.2c0.5-0.2,0.8,0,1.2,0.5c0.2,0.5,0.5,1,0.7,1.3c0.2,0.3,0.2,0.8-0.3,1.2
				C250.2,107.5,250.1,107.5,249.9,107.5z M248.1,101.3c-0.5,0-0.8-0.3-0.8-0.8c0-0.2,0-0.3,0-0.5c0-0.3,0-0.8,0-1.2
				c0-0.5,0.5-0.8,0.8-0.8c0.5,0,0.8,0.5,0.8,0.8s0,0.7,0,1.2v0.5C249.1,100.8,248.6,101.3,248.1,101.3
				C248.2,101.3,248.2,101.3,248.1,101.3z"/>
			<path class="st12" d="M264.2,99.3c-1.5,0-2.8-1.2-2.8-2.8c0-1.6,1.2-2.8,2.8-2.8c1.5,0,2.8,1.2,2.8,2.8
				C267,98,265.9,99.3,264.2,99.3C264.4,99.3,264.4,99.3,264.2,99.3z"/>
			
				<linearGradient id="SVGID_11_" gradientUnits="userSpaceOnUse" x1="303.8898" y1="111.557" x2="281.8898" y2="86.557" gradientTransform="matrix(1 0 0 -1 0 246)">
				<stop  offset="0" style="stop-color:#FCFCFC"/>
				<stop  offset="1" style="stop-color:#F0F0F0"/>
			</linearGradient>
			<path class="st13" d="M240.6,146.6L340.9,95v74.2c0,3.2-2.6,5.8-5.8,5.8H211.5c-6,0-8-8-2.8-10.9L240.6,146.6z"/>
			<path class="st14" d="M189,95l100.3,51.6l31.8,17.5c5.2,2.9,3.2,10.9-2.8,10.9H194.8c-3.2,0-5.8-2.6-5.8-5.8V95z"/>
			<path class="st15" d="M195,175h140l-67.7-43.9c-1.9-1.3-4.4-1.2-6.4,0L195,175z"/>
		</g>
		<g>
			<path class="st16" d="M248.5,161.5H103.9c-3.2,0-5.7,2.6-5.7,5.7V204c0,3.2,2.6,5.7,5.7,5.7h144.6c3.2,0,5.7-2.6,5.7-5.7v-36.8
				C254.2,164,251.7,161.5,248.5,161.5z"/>
		</g>
		<path class="st17" d="M222.3,185.6H112.8c-3.3,0-6,2.7-6,6s2.7,6,6,6h109.6c3.3,0,6-2.7,6-6S225.7,185.6,222.3,185.6z"/>
		<path class="st12" d="M151.3,185.2h-38.5c-3.5,0-6.3,2.8-6.3,6.3c0,3.5,2.8,6.3,6.3,6.3h38.5c3.5,0,6.3-2.8,6.3-6.3
			C157.6,188,154.7,185.2,151.3,185.2z"/>
		<path class="st18" d="M106.8,176.8h0.8v-1h0.7l0.9,1h1.1v0l-1.1-1.1c0.6-0.2,0.9-0.5,0.9-1.1c0-0.9-0.5-1.2-1.6-1.2h-1.7V176.8
			L106.8,176.8z M107.7,175.1v-1h0.9c0.4,0,0.6,0.1,0.6,0.5c0,0.3-0.2,0.5-0.6,0.5H107.7z M111.1,176.8h0.8v-3.4h-0.8V176.8z
			 M114.6,176.9c1.4,0,1.6-0.7,1.6-1.1c0-0.7-0.6-0.9-1.3-1c-0.8-0.2-0.9-0.2-0.9-0.4c0-0.2,0.2-0.3,0.7-0.3c0.5,0,1,0.2,1.4,0.4h0
			v-0.8c-0.4-0.2-0.9-0.3-1.3-0.3c-1.1,0-1.6,0.5-1.6,1.1c0,0.7,0.6,0.8,1.3,1c0.8,0.2,1,0.2,1,0.4c0,0.2-0.2,0.3-0.7,0.3
			c-0.4,0-1.1-0.2-1.6-0.4h0v0.8C113.4,176.8,114,176.9,114.6,176.9z M117,176.8h0.8v-1.4h0.5l1.2,1.4h1v0l-1.5-1.8l1.4-1.6v0h-1
			l-1.1,1.3h-0.5v-1.3H117V176.8z M124.3,176.9c1.4,0,1.6-0.7,1.6-1.1c0-0.7-0.6-0.9-1.3-1c-0.8-0.2-0.9-0.2-0.9-0.4
			c0-0.2,0.2-0.3,0.7-0.3c0.5,0,1,0.2,1.4,0.4h0v-0.8c-0.4-0.2-0.9-0.3-1.3-0.3c-1.1,0-1.6,0.5-1.6,1.1c0,0.7,0.6,0.8,1.3,1
			c0.8,0.2,1,0.2,1,0.4c0,0.2-0.2,0.3-0.7,0.3c-0.4,0-1.1-0.2-1.6-0.4h0v0.8C123.1,176.8,123.7,176.9,124.3,176.9z M128.5,176.9
			c0.6,0,1.1-0.2,1.4-0.4v-0.8h0c-0.4,0.3-0.8,0.5-1.3,0.5c-0.8,0-1.1-0.5-1.1-1.1c0-0.6,0.4-1.1,1.1-1.1c0.5,0,0.9,0.2,1.3,0.5h0
			v-0.8c-0.3-0.2-0.7-0.4-1.3-0.4c-1.3,0-2,0.8-2,1.8C126.5,176.1,127.1,176.9,128.5,176.9L128.5,176.9z M132.5,177
			c1.2,0,2-0.7,2-1.8c0-1.1-0.8-1.8-1.9-1.8s-2,0.7-2,1.8C130.6,176.2,131.3,177,132.5,177L132.5,177z M132.5,176.2
			c-0.7,0-1.1-0.4-1.1-1.1c0-0.7,0.4-1.1,1.1-1.1c0.7,0,1.1,0.4,1.1,1.1C133.6,175.8,133.2,176.2,132.5,176.2z M135.4,176.8h0.8v-1
			h0.7l0.9,1h1.1v0l-1.1-1.1c0.6-0.2,0.9-0.5,0.9-1.1c0-0.9-0.5-1.2-1.6-1.2h-1.7V176.8z M136.3,175.1v-1h0.9c0.4,0,0.6,0.1,0.6,0.5
			c0,0.3-0.2,0.5-0.6,0.5H136.3z M139.7,176.8h3l0-0.7h-2.2v-0.7h1.7v-0.7h-1.7v-0.6h2.1l0-0.7h-2.9L139.7,176.8L139.7,176.8z"/>
		<path class="st19" d="M148.9,175.2c0-0.8,0.3-1.8,1.2-2.7h-0.9c-0.8,0.9-1.1,1.9-1.1,2.7s0.3,1.9,1.1,2.7h0.9
			C149.2,177,148.9,176.1,148.9,175.2L148.9,175.2z M152.3,177c1.1,0,1.8-0.7,1.8-1.8c0-1.1-0.7-1.8-1.8-1.8c-1.1,0-1.8,0.7-1.8,1.8
			C150.5,176.3,151.2,177,152.3,177L152.3,177z M152.3,176.2c-0.6,0-1-0.4-1-1.1c0-0.7,0.4-1.1,1-1.1c0.5,0,1,0.4,1,1.1
			C153.3,175.9,152.8,176.2,152.3,176.2z M154.9,175.4h1.9v-0.8h-1.9L154.9,175.4L154.9,175.4z M158.1,176.8h0.8v-3.4h-1.5l-0.1,0.7
			h0.7V176.8z M161.8,177c1.1,0,1.8-0.7,1.8-1.8c0-1.1-0.7-1.8-1.8-1.8c-1.1,0-1.8,0.7-1.8,1.8C160,176.3,160.7,177,161.8,177
			L161.8,177z M161.8,176.2c-0.6,0-1-0.4-1-1.1c0-0.7,0.4-1.1,1-1.1c0.6,0,1,0.4,1,1.1C162.8,175.9,162.4,176.2,161.8,176.2z
			 M165.2,175.2c0,0.8-0.3,1.8-1.2,2.7h0.9c0.8-0.9,1.1-1.9,1.1-2.7c0-0.8-0.3-1.9-1.1-2.7H164C164.9,173.5,165.2,174.4,165.2,175.2
			z"/>
		<path class="st18" d="M241,198.1h2.3v-2.5h2l0.1-2h-2.1v-6.7h-4.5l-4.3,6.9v1.8h6.5V198.1z M241,189v4.5h-3.8l2.8-4.5H241z"/>
		<g class="st25">
			<path class="st20" d="M363.5,206.3H330l33.5-57.3l33.5,57.3H363.5z"/>
			<path class="st12" d="M363.7,203.2h-28.2l28.2-47.7l28.2,47.7H363.7z"/>
			<path class="st17" d="M363.5,168.3L363.5,168.3c0.8,0,1.4,0.6,1.4,1.4V188c0,0.8-0.6,1.4-1.4,1.4l0,0c-0.8,0-1.4-0.6-1.4-1.4
				v-18.4C362.1,168.9,362.7,168.3,363.5,168.3z"/>
			<path class="st17" d="M363.5,193.1L363.5,193.1c0.8,0,1.4,0.6,1.4,1.4l0,0c0,0.8-0.6,1.4-1.4,1.4l0,0c-0.8,0-1.4-0.6-1.4-1.4l0,0
				C362.1,193.7,362.7,193.1,363.5,193.1z"/>
		</g>
		<g>
			
				<linearGradient id="SVGID_12_" gradientUnits="userSpaceOnUse" x1="129.219" y1="179.8989" x2="129.219" y2="229.7636" gradientTransform="matrix(1 0 0 -1 0 246)">
				<stop  offset="0" style="stop-color:#000000"/>
				<stop  offset="1" style="stop-color:#000000;stop-opacity:0"/>
			</linearGradient>
			<line class="st21" x1="129.2" y1="109" x2="129.2" y2="1"/>
			<g class="st22">
				<path class="st17" d="M48.3,104.8l96-49.6c3.8-2,8.5-0.5,10.5,3.3l28.7,55.4c2,3.8,0.5,8.5-3.3,10.5l-96,49.6
					c-3.8,2-8.5,0.5-10.5-3.3l-28.7-55.4C43,111.5,44.5,106.8,48.3,104.8z"/>
				<path class="st23" d="M147.4,102.4l11.9-6.1c2.2-1.1,4.9-0.3,6,1.9l6.1,11.9c1.1,2.2,0.3,4.9-1.9,6l-11.9,6.1
					c-2.2,1.1-4.9,0.3-6-1.9l-6.1-11.9C144.4,106.3,145.2,103.6,147.4,102.4z"/>
				<path class="st23" d="M127.9,133.8l16.8-8.7c0.8-0.4,1.8-0.1,2.3,0.7v0c0.4,0.8,0.1,1.8-0.7,2.3l-16.8,8.7
					c-0.8,0.4-1.8,0.1-2.3-0.7l0,0C126.8,135.3,127.1,134.3,127.9,133.8z"/>
				<path class="st23" d="M83.4,156.9l36.6-18.9c0.8-0.4,1.8-0.1,2.3,0.7l0,0c0.4,0.8,0.1,1.8-0.7,2.3l-36.6,18.9
					c-0.8,0.4-1.8,0.1-2.3-0.7h0C82.2,158.3,82.6,157.3,83.4,156.9z"/>
				<path class="st23" d="M61.4,116.8L61.4,116.8c0.8-0.4,1.8-0.1,2.3,0.7l0,0c0.4,0.8,0.1,1.8-0.7,2.3l0,0
					c-0.8,0.4-1.8,0.1-2.3-0.7l0,0C60.3,118.3,60.6,117.3,61.4,116.8z"/>
				<path class="st23" d="M65.5,124.7L65.5,124.7c0.8-0.4,1.8-0.1,2.3,0.7l0,0c0.4,0.8,0.1,1.8-0.7,2.3l0,0
					c-0.8,0.4-1.8,0.1-2.3-0.7l0,0C64.4,126.2,64.7,125.2,65.5,124.7z"/>
				<path class="st23" d="M69.3,112.7L69.3,112.7c0.8-0.4,1.8-0.1,2.3,0.7v0c0.4,0.8,0.1,1.8-0.7,2.3l0,0c-0.8,0.4-1.8,0.1-2.3-0.7
					v0C68.2,114.2,68.5,113.2,69.3,112.7z"/>
				<path class="st23" d="M73.4,120.7L73.4,120.7c0.8-0.4,1.8-0.1,2.3,0.7l0,0c0.4,0.8,0.1,1.8-0.7,2.3l0,0
					c-0.8,0.4-1.8,0.1-2.3-0.7v0C72.3,122.1,72.6,121.1,73.4,120.7z"/>
				<path class="st23" d="M77.2,108.6L77.2,108.6c0.8-0.4,1.8-0.1,2.3,0.7v0c0.4,0.8,0.1,1.8-0.7,2.3h0c-0.8,0.4-1.8,0.1-2.3-0.7
					l0,0C76.1,110.1,76.4,109.1,77.2,108.6z"/>
				<path class="st23" d="M81.3,116.6L81.3,116.6c0.8-0.4,1.8-0.1,2.3,0.7v0c0.4,0.8,0.1,1.8-0.7,2.3h0c-0.8,0.4-1.8,0.1-2.3-0.7
					l0,0C80.2,118,80.5,117,81.3,116.6z"/>
				<path class="st23" d="M85.2,104.5L85.2,104.5c0.8-0.4,1.8-0.1,2.3,0.7l0,0c0.4,0.8,0.1,1.8-0.7,2.3h0c-0.8,0.4-1.8,0.1-2.3-0.7
					l0,0C84,106,84.3,105,85.2,104.5z"/>
				<path class="st23" d="M89.2,112.5L89.2,112.5c0.8-0.4,1.8-0.1,2.3,0.7v0c0.4,0.8,0.1,1.8-0.7,2.3l0,0c-0.8,0.4-1.8,0.1-2.3-0.7
					l0,0C88.1,113.9,88.4,112.9,89.2,112.5z"/>
				<path class="st23" d="M93.1,100.5L93.1,100.5c0.8-0.4,1.8-0.1,2.3,0.7v0c0.4,0.8,0.1,1.8-0.7,2.3v0c-0.8,0.4-1.8,0.1-2.3-0.7
					l0,0C91.9,101.9,92.2,100.9,93.1,100.5z"/>
				<path class="st23" d="M97.2,108.4L97.2,108.4c0.8-0.4,1.8-0.1,2.3,0.7v0c0.4,0.8,0.1,1.8-0.7,2.3l0,0c-0.8,0.4-1.8,0.1-2.3-0.7
					l0,0C96,109.8,96.3,108.8,97.2,108.4z"/>
				<path class="st23" d="M101,96.4L101,96.4c0.8-0.4,1.8-0.1,2.3,0.7v0c0.4,0.8,0.1,1.8-0.7,2.3h0c-0.8,0.4-1.8,0.1-2.3-0.7h0
					C99.8,97.8,100.2,96.8,101,96.4z"/>
				<path class="st23" d="M105.1,104.3L105.1,104.3c0.8-0.4,1.8-0.1,2.3,0.7v0c0.4,0.8,0.1,1.8-0.7,2.3l0,0
					c-0.8,0.4-1.8,0.1-2.3-0.7l0,0C103.9,105.7,104.3,104.7,105.1,104.3z"/>
				<path class="st23" d="M108.9,92.3L108.9,92.3c0.8-0.4,1.8-0.1,2.3,0.7v0c0.4,0.8,0.1,1.8-0.7,2.3l0,0c-0.8,0.4-1.8,0.1-2.3-0.7
					l0,0C107.8,93.7,108.1,92.7,108.9,92.3z"/>
				<path class="st23" d="M113,100.2L113,100.2c0.8-0.4,1.8-0.1,2.3,0.7v0c0.4,0.8,0.1,1.8-0.7,2.3h0c-0.8,0.4-1.8,0.1-2.3-0.7h0
					C111.8,101.6,112.2,100.6,113,100.2z"/>
				<path class="st23" d="M116.8,88.2L116.8,88.2c0.8-0.4,1.8-0.1,2.3,0.7v0c0.4,0.8,0.1,1.8-0.7,2.3h0c-0.8,0.4-1.8,0.1-2.3-0.7v0
					C115.7,89.6,116,88.6,116.8,88.2z"/>
				<path class="st23" d="M120.9,96.1L120.9,96.1c0.8-0.4,1.8-0.1,2.3,0.7l0,0c0.4,0.8,0.1,1.8-0.7,2.3l0,0
					c-0.8,0.4-1.8,0.1-2.3-0.7v0C119.8,97.5,120.1,96.5,120.9,96.1z"/>
				<path class="st23" d="M124.7,84.1L124.7,84.1c0.8-0.4,1.8-0.1,2.3,0.7v0c0.4,0.8,0.1,1.8-0.7,2.3h0c-0.8,0.4-1.8,0.1-2.3-0.7h0
					C123.6,85.5,123.9,84.5,124.7,84.1z"/>
				<path class="st23" d="M128.8,92L128.8,92c0.8-0.4,1.8-0.1,2.3,0.7v0c0.4,0.8,0.1,1.8-0.7,2.3l0,0c-0.8,0.4-1.8,0.1-2.3-0.7h0
					C127.7,93.4,128,92.4,128.8,92z"/>
				<path class="st23" d="M132.6,80L132.6,80c0.8-0.4,1.8-0.1,2.3,0.7v0c0.4,0.8,0.1,1.8-0.7,2.3l0,0c-0.8,0.4-1.8,0.1-2.3-0.7v0
					C131.5,81.4,131.8,80.4,132.6,80z"/>
				<path class="st23" d="M136.7,87.9L136.7,87.9c0.8-0.4,1.8-0.1,2.3,0.7v0c0.4,0.8,0.1,1.8-0.7,2.3l0,0c-0.8,0.4-1.8,0.1-2.3-0.7
					v0C135.6,89.3,135.9,88.3,136.7,87.9z"/>
				<path class="st23" d="M140.5,75.9L140.5,75.9c0.8-0.4,1.8-0.1,2.3,0.7l0,0c0.4,0.8,0.1,1.8-0.7,2.3l0,0
					c-0.8,0.4-1.8,0.1-2.3-0.7l0,0C139.4,77.3,139.7,76.3,140.5,75.9z"/>
				<path class="st23" d="M144.6,83.8L144.6,83.8c0.8-0.4,1.8-0.1,2.3,0.7v0c0.4,0.8,0.1,1.8-0.7,2.3l0,0c-0.8,0.4-1.8,0.1-2.3-0.7
					l0,0C143.5,85.2,143.8,84.2,144.6,83.8z"/>
				<path class="st23" d="M148.5,71.8L148.5,71.8c0.8-0.4,1.8-0.1,2.3,0.7v0c0.4,0.8,0.1,1.8-0.7,2.3l0,0c-0.8,0.4-1.8,0.1-2.3-0.7
					v0C147.3,73.2,147.6,72.2,148.5,71.8z"/>
				<path class="st23" d="M152.6,79.7L152.6,79.7c0.8-0.4,1.8-0.1,2.3,0.7v0c0.4,0.8,0.1,1.8-0.7,2.3l0,0c-0.8,0.4-1.8,0.1-2.3-0.7
					v0C151.4,81.1,151.7,80.1,152.6,79.7z"/>
			</g>
			<path class="st24" d="M104.2,125.7h-3.9c-24.6,0-44.6-19.9-44.6-44.6V53.3 M55.7,53.3L39,70.1 M55.7,53.3l16.7,16.7"/>
		</g>
	</g>
</g>
</svg>
