<?xml version="1.0" encoding="utf-8"?>
<!-- Generator: Adobe Illustrator 25.2.3, SVG Export Plug-In . SVG Version: 6.00 Build 0)  -->
<svg version="1.1" id="Layer_1" xmlns="http://www.w3.org/2000/svg" xmlns:xlink="http://www.w3.org/1999/xlink" x="0px" y="0px"
	 viewBox="0 0 432 251" style="enable-background:new 0 0 432 251;" xml:space="preserve">
<style type="text/css">
	.st0{clip-path:url(#SVGID_2_);}
	.st1{fill:#FFFFFF;}
	.st2{fill-rule:evenodd;clip-rule:evenodd;fill:url(#SVGID_3_);}
	.st3{fill-rule:evenodd;clip-rule:evenodd;fill:url(#SVGID_4_);}
	.st4{fill-rule:evenodd;clip-rule:evenodd;fill:#FFD232;}
	.st5{fill:none;stroke:#FEDA5B;stroke-width:14;}
	.st6{fill:none;stroke:#F6A94A;stroke-width:14;}
	.st7{fill:#807C7B;}
	.st8{fill:#141414;}
	.st9{fill:#E44A32;}
	.st10{fill:#F5DE64;}
	.st11{fill:#F6A94A;}
	.st12{fill:#B9B9B9;}
	.st13{fill:#F8AA4D;}
	.st14{fill:#FFCB05;}
	.st15{fill-rule:evenodd;clip-rule:evenodd;fill:url(#SVGID_5_);}
	.st16{fill-rule:evenodd;clip-rule:evenodd;fill:url(#SVGID_6_);}
	.st17{fill:#FFFFFF;fill-opacity:0.85;filter:url(#dropShadow_light);}
	.st18{fill:#949494;}
	.st19{filter:url(#dropShadow);}
	.st20{fill:#FFFFFF;filter:url(#dropShadow);}
</style>
<defs>
	<filter id="dropShadow" height="130%">
		<feGaussianBlur in="SourceAlpha" stdDeviation="5"/> <!-- stdDeviation is how much to blur -->
		<feOffset dx="0" dy="5" result="offsetblur"/> <!-- how much to offset -->
		<feComponentTransfer>
		<feFuncA type="linear" slope="0.25"/> <!-- slope is the opacity of the shadow -->
		</feComponentTransfer>
		<feMerge> 
			<feMergeNode/> <!-- this contains the offset blurred image -->
			<feMergeNode in="SourceGraphic"/> <!-- this contains the element that the filter is applied to -->
		</feMerge>
	</filter>
	<filter id="dropShadow_light" height="130%">
		<feGaussianBlur in="SourceAlpha" stdDeviation="5"/> <!-- stdDeviation is how much to blur -->
		<feOffset dx="0" dy="5" result="offsetblur"/> <!-- how much to offset -->
		<feComponentTransfer>
		<feFuncA type="linear" slope="0.15"/> <!-- slope is the opacity of the shadow -->
		</feComponentTransfer>
		<feMerge> 
			<feMergeNode/> <!-- this contains the offset blurred image -->
			<feMergeNode in="SourceGraphic"/> <!-- this contains the element that the filter is applied to -->
		</feMerge>
	</filter>
</defs>
<g>
	<defs>
		<rect id="SVGID_1_" width="432" height="251"/>
	</defs>
	<clipPath id="SVGID_2_">
		<use xlink:href="#SVGID_1_"  style="overflow:visible;"/>
	</clipPath>
	<g class="st0">
		<rect class="st1" width="432" height="251"/>
		
			<linearGradient id="SVGID_3_" gradientUnits="userSpaceOnUse" x1="183.2147" y1="-14.6078" x2="434.8427" y2="92.9502" gradientTransform="matrix(1 0 0 -1 0 252)">
			<stop  offset="0" style="stop-color:#FFD232"/>
			<stop  offset="1" style="stop-color:#FFD232;stop-opacity:0"/>
		</linearGradient>
		<path class="st2" d="M425.1,112.5c-6.6-3.8-14.9-1.5-18.7,5l-58.7,101.4H170.5c-7.6,0-13.7,6.1-13.7,13.7
			c0,7.5,6.1,13.7,13.7,13.7h193l66.6-115C433.9,124.6,431.7,116.3,425.1,112.5z"/>
		
			<linearGradient id="SVGID_4_" gradientUnits="userSpaceOnUse" x1="255.258" y1="19.259" x2="219.95" y2="19.259" gradientTransform="matrix(1 0 0 -1 0 252)">
			<stop  offset="0" style="stop-color:#F19C3B"/>
			<stop  offset="1" style="stop-color:#F19C3B;stop-opacity:0"/>
		</linearGradient>
		<path class="st3" d="M219.9,246.2h35.2v-26.9h-35.2V246.2z"/>
		<path class="st4" d="M320.3,232.7c0-7.4-6.1-13.4-13.6-13.4h-51.4c-7.5,0-13.6,6-13.6,13.4c0,7.4,6.1,13.4,13.6,13.4h51.4
			C314.2,246.2,320.3,240.2,320.3,232.7z"/>
		<g>
			<path class="st20" d="M176,35h150c6.1,0,11,4.9,11,11v150c0,6.1-4.9,11-11,11H176c-6.1,0-11-4.9-11-11V46
				C165,39.9,169.9,35,176,35z"/>
			<circle class="st5" cx="251" cy="113" r="50"/>
			<path class="st6" d="M207.7,88c4.4-7.5,10.6-13.8,18.2-18.1c7.6-4.3,16.2-6.6,24.9-6.6"/>
			<path d="M243.6,112h6.7v-1.6h-4.2l1.5-1.1c1.9-1.4,2.7-2,2.7-3.5c0-1.5-1.1-2.5-3.1-2.5c-0.9,0-2.1,0.3-3.2,1.2v1.8h0
				c1.2-1.1,2.3-1.4,3.2-1.4c0.9,0,1.3,0.4,1.3,1c0,0.8-0.7,1.2-2.3,2.4l-2.6,1.9V112z M255.1,112.2c2.3,0,3.6-1.3,3.6-2.8
				c0-0.7-0.2-1.2-0.6-1.6c-0.7-0.7-1.8-1-4-1h-0.3l0-1.6h4.3l-0.1-1.6h-5.8l-0.1,4.7h1.4c2.1,0,2.7,0.2,3,0.5
				c0.2,0.2,0.2,0.3,0.2,0.6c0,0.5-0.4,1.2-1.8,1.2c-0.8,0-1.9-0.2-3.1-0.7h0v1.7C253,112,254.2,112.2,255.1,112.2z"/>
			<path class="st7" d="M241.2,122h0.9l0.4-1h2l0.4,1h1l-1.6-4.2h-1.4L241.2,122z M243.4,118.7h0.2l0.6,1.5h-1.4L243.4,118.7z
				 M246.5,122h0.9v-4.5h-0.9V122z M249.9,118.7c-1.1,0-1.7,0.8-1.7,1.8c0,0.9,0.6,1.6,1.9,1.6c0.6,0,1-0.2,1.3-0.3V121h0
				c-0.4,0.2-0.7,0.4-1.2,0.4c-0.6,0-0.9-0.2-1-0.7h2.4c0-0.1,0-0.2,0-0.3C251.5,119.4,251,118.7,249.9,118.7z M249.9,119.4
				c0.4,0,0.7,0.3,0.8,0.7h-1.6C249.2,119.6,249.5,119.4,249.9,119.4z M252.3,122h0.9v-2c0.1-0.3,0.4-0.4,0.8-0.4c0.1,0,0.1,0,0.2,0
				v-0.9c-0.1,0-0.1,0-0.1,0c-0.3,0-0.6,0.2-0.9,0.7v-0.6h-0.9V122z M255.2,122h0.9v-2.5h0.7v-0.7h-0.7v-0.8l-0.9,0.1v0.7h-0.6
				l-0.1,0.7h0.7V122z M258.8,122.1c1.2,0,1.4-0.6,1.4-1c0-0.6-0.3-0.8-1.1-1c-0.7-0.2-0.8-0.2-0.8-0.4c0-0.2,0.1-0.3,0.4-0.3
				c0.4,0,0.9,0.2,1.3,0.4h0V119c-0.3-0.1-0.8-0.3-1.2-0.3c-0.9,0-1.4,0.5-1.4,1.1c0,0.6,0.4,0.8,1.1,1c0.7,0.2,0.8,0.2,0.8,0.4
				c0,0.2-0.1,0.3-0.5,0.3c-0.5,0-1-0.2-1.4-0.4h0v0.8C257.8,122,258.3,122.1,258.8,122.1z"/>
			<path class="st8" d="M205.7,193h1.1v-2h2.5v2h1.1v-4.9h-1.1v1.9h-2.5v-1.9h-1.1V193z M212.2,188.7c0.4,0,0.7-0.3,0.7-0.6v0
				c0-0.3-0.2-0.6-0.7-0.6c-0.4,0-0.7,0.3-0.7,0.6v0C211.6,188.4,211.8,188.7,212.2,188.7z M211.7,193h1v-3.8h-1V193z M215.4,191.8
				c1.2,0,1.7-0.7,1.7-1.4c0-0.4-0.2-0.8-0.5-1l0.8-0.9v0h-1.1l-0.4,0.6c-0.2,0-0.3-0.1-0.6-0.1c-1.2,0-1.8,0.7-1.8,1.4
				c0,0.5,0.2,0.9,0.7,1.1l-0.2,1c-0.6,0.3-0.7,0.6-0.7,0.9c0,0.6,0.6,1,2,1c1.5,0,2-0.7,2-1.1c0-0.7-0.6-1-2.4-1.1l0.1-0.4
				C215.2,191.8,215.3,191.8,215.4,191.8z M215.4,191.1c-0.5,0-0.8-0.2-0.8-0.6c0-0.4,0.3-0.6,0.8-0.6c0.4,0,0.8,0.3,0.8,0.6
				C216.2,190.9,215.9,191.1,215.4,191.1z M215.5,193.8c-0.7,0-1.2-0.2-1.2-0.5c0-0.1,0.1-0.2,0.3-0.4c1.4,0.1,2,0.2,2,0.5
				C216.6,193.6,216.2,193.8,215.5,193.8z M218.2,193h1v-2.6c0.3-0.2,0.6-0.4,1-0.4c0.3,0,0.6,0.1,0.6,0.7v2.3h1v-2.5
				c0-1-0.5-1.4-1.3-1.4c-0.6,0-1,0.3-1.3,0.6v-2.1h-1V193z"/>
			<path class="st8" d="M243.7,193h3.8l0-1h-2.8v-3.9h-1.1V193z M250.3,193.1c1.3,0,2.1-0.9,2.1-2s-0.8-2-2.1-2s-2.1,0.9-2.1,2
				S249,193.1,250.3,193.1z M250.3,192.2c-0.6,0-1-0.5-1-1.1s0.4-1.1,1-1.1c0.6,0,1,0.5,1,1.1S250.9,192.2,250.3,192.2z M254,193
				h1.4l0.7-2.5h0.1l0.7,2.5h1.4l1.1-3.8h-1l-0.7,2.8h-0.1l-0.8-2.8h-1.2l-0.8,2.8h-0.1l-0.7-2.8h-1.1L254,193z"/>
			<path class="st8" d="M281.7,193h1.1v-3.2h0l1.7,2.9h0.1l1.7-2.9h0v3.2h1.1v-4.9h-1.3l-1.6,2.8l-1.6-2.8h-1.2V193z M290.5,189.1
				c-1.2,0-2,0.9-2,2.1c0,1.1,0.7,1.9,2.2,1.9c0.6,0,1.2-0.2,1.5-0.4v-0.9h0c-0.4,0.3-0.9,0.4-1.4,0.4c-0.7,0-1.1-0.3-1.2-0.8h2.8
				c0-0.1,0-0.2,0-0.3C292.3,190,291.7,189.1,290.5,189.1z M290.4,190c0.5,0,0.9,0.3,0.9,0.8h-1.8C289.6,190.2,289.9,190,290.4,190z
				 M296.9,187.7h-1v1.6c-0.2-0.1-0.5-0.2-0.9-0.2c-1.2,0-2.1,0.9-2.1,2.1c0,1.2,0.8,1.9,1.7,1.9c0.6,0,1-0.3,1.2-0.6l0,0.4h1V187.7
				z M295.1,190c0.3,0,0.5,0.1,0.8,0.3v1.7c-0.2,0.2-0.5,0.3-0.9,0.3c-0.6,0-1-0.4-1-1.1C294,190.4,294.4,190,295.1,190z
				 M298.6,188.7c0.4,0,0.7-0.3,0.7-0.6v0c0-0.3-0.2-0.6-0.7-0.6c-0.4,0-0.7,0.3-0.7,0.6v0C297.9,188.4,298.2,188.7,298.6,188.7z
				 M298.1,193h1v-3.8h-1V193z M303.8,189.2h-1v2.6c-0.3,0.2-0.6,0.4-1,0.4c-0.3,0-0.6-0.1-0.6-0.7v-2.3h-1v2.5c0,1,0.5,1.4,1.3,1.4
				c0.6,0,1-0.3,1.3-0.6v0.5h1V189.2z M305,193h1v-2.6c0.3-0.2,0.6-0.4,0.9-0.4c0.3,0,0.6,0.1,0.6,0.7v2.3h1v-2.5c0,0,0,0,0-0.1
				c0.3-0.2,0.6-0.4,0.9-0.4c0.3,0,0.6,0.1,0.6,0.7v2.3h1v-2.5c0-1-0.5-1.4-1.3-1.4c-0.5,0-0.9,0.3-1.4,0.8
				c-0.2-0.5-0.6-0.8-1.2-0.8c-0.6,0-1,0.3-1.3,0.7v-0.6h-1V193z"/>
			<circle class="st9" cx="198" cy="190" r="3"/>
			<circle class="st10" cx="236" cy="190" r="3"/>
			<circle class="st11" cx="274" cy="190" r="3"/>
		</g>
		<g class="st19">
			<path class="st12" d="M357.1,129.4l-0.3-0.2L323.4,110V71l33.7-19.5l0.3,0.2L390.9,71v39L357.1,129.4z M324.7,109.2l32.4,18.7
				l32.4-18.7V71.7L357.1,53l-32.4,18.7V109.2z"/>
			<path class="st13" d="M327.6,73.6v33.8l29.2,16.9l29.3-16.9V73.6l-29.3-16.9L327.6,73.6z"/>
			<path class="st14" d="M356.8,56.7v67.6l29.3-16.9V73.6L356.8,56.7z"/>
			<path class="st1" d="M358.2,73.3c3.8,0.3,7.3,1.8,10,4.2l2.7-2.7c0.5-0.5,1.4-0.5,1.9,0c0.6,0.5,0.5,1.4,0,1.9l-2.7,2.7
				c2.3,2.7,3.8,6.2,4.2,10h3.8c0.8,0,1.4,0.6,1.4,1.4c0,0.8-0.6,1.4-1.4,1.4h-3.8c-0.3,3.8-1.8,7.3-4.2,10l2.7,2.6
				c0.5,0.5,0.5,1.4,0,1.9c-0.5,0.6-1.4,0.5-1.9,0l-2.7-2.7c-2.7,2.3-6.2,3.8-10,4.2v3.8c0,0.8-0.6,1.4-1.4,1.4s-1.4-0.6-1.4-1.4
				v-3.8c-3.8-0.3-7.3-1.8-10-4.2l-2.7,2.7c-0.5,0.5-1.4,0.5-1.9,0c-0.6-0.5-0.5-1.4,0-1.9l2.7-2.7c-2.3-2.7-3.8-6.2-4.2-10h-3.8
				c-0.8,0-1.4-0.6-1.4-1.4c0-0.8,0.6-1.4,1.4-1.4h3.8c0.3-3.8,1.8-7.3,4.2-10l-2.7-2.7c-0.5-0.5-0.5-1.4,0-1.9
				c0.5-0.6,1.4-0.5,1.9,0l2.7,2.7c2.7-2.3,6.2-3.8,10-4.2v-3.8c0-0.8,0.6-1.4,1.4-1.4s1.4,0.6,1.4,1.4L358.2,73.3z M358.2,86
				c0.3,0.1,0.7,0.3,1,0.4l7.1-7.1c-2.2-1.9-5-3.1-8.1-3.3L358.2,86L358.2,86z M361.1,88.3c0.2,0.3,0.3,0.6,0.4,1h10
				c-0.3-3.1-1.5-5.8-3.3-8.1L361.1,88.3z M361.6,92c-0.1,0.4-0.3,0.7-0.5,1l7.1,7.1c1.9-2.2,3.1-5,3.3-8.1L361.6,92L361.6,92z
				 M359.2,94.9c-0.3,0.2-0.6,0.3-1,0.4v10c3.1-0.3,5.8-1.5,8.1-3.3L359.2,94.9z M355.5,95.4c-0.3-0.1-0.7-0.3-1-0.4l-7,7
				c2.2,1.9,5,3.1,8.1,3.3V95.4z M352.5,93.1c-0.2-0.3-0.3-0.6-0.4-1h-10c0.3,3.1,1.5,5.8,3.3,8.1L352.5,93.1z M352.1,89.3
				c0.1-0.3,0.3-0.7,0.4-1l-7-7c-1.9,2.2-3.1,5-3.3,8.1H352.1L352.1,89.3z M354.5,86.4c0.3-0.2,0.6-0.3,1-0.4V76
				c-3.1,0.3-5.8,1.5-8.1,3.3L354.5,86.4z M358.4,89.2c-0.4-0.4-0.9-0.6-1.6-0.6c-0.6,0-1.2,0.3-1.6,0.6c-0.4,0.4-0.6,0.9-0.6,1.6
				c0,0.6,0.3,1.2,0.6,1.6c0.4,0.4,0.9,0.6,1.6,0.6c0.6,0,1.2-0.3,1.6-0.6c0.4-0.4,0.6-0.9,0.6-1.6S358.8,89.6,358.4,89.2z"/>
		</g>
		<g>
			<path class="st4" d="M185.9,6.8c7.2,4.1,9.6,13.2,5.5,20.4L163,76c-4.1,7.1-13.3,9.6-20.5,5.5c-7.2-4.1-9.6-13.2-5.5-20.4
				l28.4-48.8C169.5,5.1,178.7,2.7,185.9,6.8z"/>
		</g>
		
			<linearGradient id="SVGID_5_" gradientUnits="userSpaceOnUse" x1="152.1828" y1="186.1491" x2="114.8957" y2="121.6388" gradientTransform="matrix(1 0 0 -1 0 252)">
			<stop  offset="0" style="stop-color:#FFD232"/>
			<stop  offset="1" style="stop-color:#FFD232;stop-opacity:0"/>
		</linearGradient>
		<path class="st15" d="M186.7,6c7.2,4.1,9.6,13.3,5.5,20.5l-65.8,114c-4.1,7.2-13.3,9.6-20.5,5.5c-7.2-4.1-9.6-13.3-5.5-20.5
			l65.8-114C170.3,4.3,179.5,1.9,186.7,6z"/>
		
			<linearGradient id="SVGID_6_" gradientUnits="userSpaceOnUse" x1="149.6931" y1="183.0142" x2="133.7421" y2="154.032" gradientTransform="matrix(1 0 0 -1 0 252)">
			<stop  offset="0" style="stop-color:#F19C3B"/>
			<stop  offset="1" style="stop-color:#F19C3B;stop-opacity:0"/>
		</linearGradient>
		<path class="st16" d="M117.9,94.7l19-33.1L163,76.8l-19,33.1L117.9,94.7z"/>
		<path class="st4" d="M185.9,7.6c7.2,4.1,9.6,13.2,5.5,20.4L163,76.7c-4.1,7.1-13.3,9.6-20.5,5.5c-7.2-4.1-9.6-13.2-5.5-20.4
			L165.4,13C169.5,5.9,178.7,3.4,185.9,7.6z"/>
		<g>
			<path class="st17" d="M17.7,110.7h162.4c3.2,0,5.7,2.6,5.7,5.7v42.3c0,3.2-2.6,5.7-5.7,5.7H17.7c-3.2,0-5.7-2.6-5.7-5.7v-42.3
				C12,113.2,14.6,110.7,17.7,110.7z"/>
			<path class="st1" d="M28.3,137.5h122c3.7,0,6.7,3,6.7,6.7v0c0,3.7-3,6.7-6.7,6.7h-122c-3.7,0-6.7-3-6.7-6.7v0
				C21.6,140.5,24.6,137.5,28.3,137.5z"/>
			<path class="st13" d="M28.4,137.1h70.1c3.9,0,7,3.1,7,7l0,0c0,3.9-3.1,7-7,7H28.4c-3.9,0-7-3.1-7-7l0,0
				C21.3,140.3,24.5,137.1,28.4,137.1z"/>
			<path class="st8" d="M21.6,127.1h0.8v-1h0.7l0.9,1h1.1v0L24,126c0.6-0.2,0.9-0.5,0.9-1.1c0-0.9-0.5-1.2-1.6-1.2h-1.7V127.1z
				 M22.5,125.4v-1h0.9c0.4,0,0.6,0.1,0.6,0.5c0,0.3-0.2,0.5-0.6,0.5H22.5z M25.9,127.1h0.8v-3.4h-0.8V127.1z M29.4,127.2
				c1.4,0,1.6-0.7,1.6-1.1c0-0.7-0.6-0.9-1.3-1c-0.8-0.2-0.9-0.2-0.9-0.4c0-0.2,0.2-0.3,0.7-0.3c0.5,0,1,0.2,1.4,0.4h0v-0.8
				c-0.4-0.2-0.9-0.3-1.3-0.3c-1.1,0-1.6,0.5-1.6,1.1c0,0.7,0.6,0.8,1.3,1c0.8,0.2,1,0.2,1,0.4c0,0.2-0.2,0.3-0.7,0.3
				c-0.4,0-1.1-0.2-1.6-0.4h0v0.8C28.2,127,28.8,127.2,29.4,127.2z M31.8,127.1h0.8v-1.4h0.5l1.2,1.4h1v0l-1.5-1.8l1.4-1.6v0h-1
				l-1.1,1.3h-0.5v-1.3h-0.8V127.1z M39.1,127.2c1.4,0,1.6-0.7,1.6-1.1c0-0.7-0.6-0.9-1.3-1c-0.8-0.2-0.9-0.2-0.9-0.4
				c0-0.2,0.2-0.3,0.7-0.3c0.5,0,1,0.2,1.4,0.4h0v-0.8c-0.4-0.2-0.9-0.3-1.3-0.3c-1.1,0-1.6,0.5-1.6,1.1c0,0.7,0.6,0.8,1.3,1
				c0.8,0.2,1,0.2,1,0.4c0,0.2-0.2,0.3-0.7,0.3c-0.4,0-1.1-0.2-1.6-0.4h0v0.8C37.9,127,38.5,127.2,39.1,127.2z M43.3,127.2
				c0.6,0,1.1-0.2,1.4-0.4V126h0c-0.4,0.3-0.8,0.5-1.3,0.5c-0.8,0-1.1-0.5-1.1-1.1c0-0.6,0.4-1,1.1-1c0.5,0,0.9,0.2,1.3,0.5h0V124
				c-0.3-0.2-0.7-0.4-1.3-0.4c-1.3,0-2,0.8-2,1.8C41.3,126.4,41.9,127.2,43.3,127.2z M47.3,127.2c1.2,0,2-0.7,2-1.8
				c0-1.1-0.8-1.8-1.9-1.8s-2,0.7-2,1.8C45.4,126.5,46.1,127.2,47.3,127.2z M47.3,126.5c-0.7,0-1.1-0.4-1.1-1.1
				c0-0.7,0.4-1.1,1.1-1.1c0.7,0,1.1,0.4,1.1,1.1C48.4,126.1,48,126.5,47.3,126.5z M50.2,127.1h0.8v-1h0.7l0.9,1h1.1v0l-1.1-1.1
				c0.6-0.2,0.9-0.5,0.9-1.1c0-0.9-0.5-1.2-1.6-1.2h-1.7V127.1z M51.1,125.4v-1H52c0.4,0,0.6,0.1,0.6,0.5c0,0.3-0.2,0.5-0.6,0.5
				H51.1z M54.5,127.1h3l0-0.7h-2.2v-0.7H57v-0.7h-1.7v-0.6h2.1l0-0.7h-2.9V127.1z"/>
			<path class="st18" d="M63.7,125.5c0-0.8,0.3-1.8,1.2-2.7H64c-0.8,0.9-1.1,1.9-1.1,2.7c0,0.8,0.3,1.9,1.1,2.7h0.9
				C64,127.3,63.7,126.3,63.7,125.5z M67.1,127.2c1.1,0,1.8-0.7,1.8-1.8c0-1.1-0.7-1.8-1.8-1.8c-1.1,0-1.8,0.7-1.8,1.8
				C65.3,126.5,66,127.2,67.1,127.2z M67.1,126.5c-0.6,0-1-0.4-1-1.1c0-0.7,0.4-1.1,1-1.1s1,0.4,1,1.1
				C68.1,126.1,67.6,126.5,67.1,126.5z M69.7,125.7h1.9v-0.8h-1.9V125.7z M72.9,127.1h0.8v-3.4h-1.5l-0.1,0.7h0.7V127.1z
				 M76.6,127.2c1.1,0,1.8-0.7,1.8-1.8c0-1.1-0.7-1.8-1.8-1.8c-1.1,0-1.8,0.7-1.8,1.8C74.8,126.5,75.5,127.2,76.6,127.2z
				 M76.6,126.5c-0.6,0-1-0.4-1-1.1c0-0.7,0.4-1.1,1-1.1s1,0.4,1,1.1C77.6,126.1,77.2,126.5,76.6,126.5z M80,125.5
				c0,0.8-0.3,1.8-1.2,2.7h0.9c0.8-0.9,1.1-1.9,1.1-2.7c0-0.8-0.3-1.9-1.1-2.7h-0.9C79.7,123.7,80,124.7,80,125.5z"/>
			<path class="st8" d="M170,150.1c2.7,0,4.8-1.6,4.8-4.2c0-2.3-1.8-3.4-4.1-3.4c-1.1,0-2.3,0.3-3.3,1c0.2-2.2,1.6-3,3.4-3
				c1.2,0,2,0.3,3.3,0.9h0v-2.2c-1.2-0.5-2.4-0.8-3.4-0.8c-3,0-5.7,2-5.7,6.1C165,148.3,167.1,150.1,170,150.1z M170.1,144.5
				c1.1,0,2.3,0.3,2.3,1.6c0,1.3-1.1,2-2.3,2c-1.4,0-2.6-0.7-2.7-2.7C168.3,144.7,169.2,144.5,170.1,144.5z"/>
			<path class="st17" d="M17.7,165.9h162.4c3.2,0,5.7,2.6,5.7,5.7v42.3c0,3.2-2.6,5.7-5.7,5.7H17.7c-3.2,0-5.7-2.6-5.7-5.7v-42.3
				C12,168.5,14.6,165.9,17.7,165.9z"/>
			<path class="st1" d="M28.3,192.8h122c3.7,0,6.7,3,6.7,6.7v0c0,3.7-3,6.7-6.7,6.7h-122c-3.7,0-6.7-3-6.7-6.7v0
				C21.6,195.8,24.6,192.8,28.3,192.8z"/>
			<path class="st14" d="M28.4,192.4h37.4c3.9,0,7,3.1,7,7l0,0c0,3.9-3.1,7-7,7H28.4c-3.9,0-7-3.1-7-7l0,0
				C21.3,195.6,24.5,192.4,28.4,192.4z"/>
			<path class="st8" d="M21.6,182.4h0.8v-1h0.7l0.9,1h1.1v0l-1.1-1.1c0.6-0.2,0.9-0.5,0.9-1.1c0-0.9-0.5-1.2-1.6-1.2h-1.7V182.4z
				 M22.5,180.6v-1h0.9c0.4,0,0.6,0.1,0.6,0.5c0,0.3-0.2,0.5-0.6,0.5H22.5z M25.9,182.4h0.8V179h-0.8V182.4z M29.4,182.5
				c1.4,0,1.6-0.7,1.6-1.1c0-0.7-0.6-0.9-1.3-1c-0.8-0.2-0.9-0.2-0.9-0.4c0-0.2,0.2-0.3,0.7-0.3c0.5,0,1,0.2,1.4,0.4h0v-0.8
				c-0.4-0.2-0.9-0.3-1.3-0.3c-1.1,0-1.6,0.5-1.6,1.1c0,0.7,0.6,0.8,1.3,1c0.8,0.2,1,0.2,1,0.4c0,0.2-0.2,0.3-0.7,0.3
				c-0.4,0-1.1-0.2-1.6-0.4h0v0.8C28.2,182.3,28.8,182.5,29.4,182.5z M31.8,182.4h0.8V181h0.5l1.2,1.4h1v0l-1.5-1.8l1.4-1.6v0h-1
				l-1.1,1.3h-0.5V179h-0.8V182.4z M39.1,182.5c1.4,0,1.6-0.7,1.6-1.1c0-0.7-0.6-0.9-1.3-1c-0.8-0.2-0.9-0.2-0.9-0.4
				c0-0.2,0.2-0.3,0.7-0.3c0.5,0,1,0.2,1.4,0.4h0v-0.8c-0.4-0.2-0.9-0.3-1.3-0.3c-1.1,0-1.6,0.5-1.6,1.1c0,0.7,0.6,0.8,1.3,1
				c0.8,0.2,1,0.2,1,0.4c0,0.2-0.2,0.3-0.7,0.3c-0.4,0-1.1-0.2-1.6-0.4h0v0.8C37.9,182.3,38.5,182.5,39.1,182.5z M43.3,182.5
				c0.6,0,1.1-0.2,1.4-0.4v-0.8h0c-0.4,0.3-0.8,0.5-1.3,0.5c-0.8,0-1.1-0.5-1.1-1.1c0-0.6,0.4-1.1,1.1-1.1c0.5,0,0.9,0.2,1.3,0.5h0
				v-0.8c-0.3-0.2-0.7-0.4-1.3-0.4c-1.3,0-2,0.8-2,1.8C41.3,181.7,41.9,182.5,43.3,182.5z M47.3,182.5c1.2,0,2-0.7,2-1.8
				s-0.8-1.8-1.9-1.8s-2,0.7-2,1.8S46.1,182.5,47.3,182.5z M47.3,181.8c-0.7,0-1.1-0.4-1.1-1.1c0-0.7,0.4-1.1,1.1-1.1
				c0.7,0,1.1,0.4,1.1,1.1C48.4,181.4,48,181.8,47.3,181.8z M50.2,182.4h0.8v-1h0.7l0.9,1h1.1v0l-1.1-1.1c0.6-0.2,0.9-0.5,0.9-1.1
				c0-0.9-0.5-1.2-1.6-1.2h-1.7V182.4z M51.1,180.6v-1H52c0.4,0,0.6,0.1,0.6,0.5c0,0.3-0.2,0.5-0.6,0.5H51.1z M54.5,182.4h3l0-0.7
				h-2.2V181H57v-0.7h-1.7v-0.6h2.1l0-0.7h-2.9V182.4z"/>
			<path class="st18" d="M63.7,180.8c0-0.8,0.3-1.8,1.2-2.7H64c-0.8,0.9-1.1,1.9-1.1,2.7c0,0.8,0.3,1.9,1.1,2.7h0.9
				C64,182.6,63.7,181.6,63.7,180.8z M67.1,182.5c1.1,0,1.8-0.7,1.8-1.8c0-1.1-0.7-1.8-1.8-1.8c-1.1,0-1.8,0.7-1.8,1.8
				C65.3,181.8,66,182.5,67.1,182.5z M67.1,181.8c-0.6,0-1-0.4-1-1.1c0-0.7,0.4-1.1,1-1.1s1,0.4,1,1.1
				C68.1,181.4,67.6,181.8,67.1,181.8z M69.7,181h1.9v-0.8h-1.9V181z M72.9,182.4h0.8V179h-1.5l-0.1,0.7h0.7V182.4z M76.6,182.5
				c1.1,0,1.8-0.7,1.8-1.8c0-1.1-0.7-1.8-1.8-1.8c-1.1,0-1.8,0.7-1.8,1.8C74.8,181.8,75.5,182.5,76.6,182.5z M76.6,181.8
				c-0.6,0-1-0.4-1-1.1c0-0.7,0.4-1.1,1-1.1s1,0.4,1,1.1C77.6,181.4,77.2,181.8,76.6,181.8z M80,180.8c0,0.8-0.3,1.8-1.2,2.7h0.9
				c0.8-0.9,1.1-1.9,1.1-2.7c0-0.8-0.3-1.9-1.1-2.7h-0.9C79.7,179,80,180,80,180.8z"/>
			<path class="st8" d="M174.4,202c0-1-0.5-2.2-2.5-2.6v0c1.7-0.4,2.4-1.5,2.4-2.6c0-1.9-1.7-3.1-4.3-3.1c-1.6,0-3.1,0.4-4.2,0.8
				v2.3h0c1.5-0.7,2.7-1,4-1c1.4,0,2.2,0.4,2.2,1.3c0,0.9-1,1.4-3.1,1.4h-1v2h1c2.1,0,3.1,0.3,3.1,1.3c0,1-1,1.5-2.5,1.5
				c-0.9,0-2.7-0.3-4.2-0.9h0v2.3c1.2,0.5,2.7,0.8,4.3,0.8C172.2,205.4,174.4,204.1,174.4,202z"/>
		</g>
	</g>
</g>
</svg>
