<svg width="45" height="44" viewBox="0 0 45 44" fill="none" xmlns="http://www.w3.org/2000/svg">
<path d="M32.9726 9.7207C26.7229 3.88824 16.5665 4.62189 10.702 10.4864C5.33724 15.8466 4.98418 24.8612 8.67073 31.0605L0 44.0001L10.6424 33.3577L16.4427 27.5574C15.7028 26.8146 15.1165 25.9333 14.7174 24.9638C14.3183 23.9943 14.1142 22.9556 14.1168 21.9072C14.1193 20.8588 14.3285 19.8211 14.7323 18.8536C15.1362 17.8861 15.7267 17.0076 16.4703 16.2684C19.0059 13.7328 23.9763 13.0954 27.1126 15.5486L32.9726 9.7207Z" fill="#C84727"/>
<path d="M30.5338 20.0422C31.1176 21.7148 31.1209 23.5354 30.5431 25.2101C29.9653 26.8849 28.8402 28.3161 27.3493 29.273C25.8583 30.2299 24.0885 30.6566 22.3253 30.4843C20.5621 30.3119 18.9083 29.5506 17.6309 28.3232L44.5738 0L30.5338 20.0422Z" fill="#C84727"/>
</svg>
